solid AXA indicator holder
facet normal -0.5 -0.8660254037844387 0.0
  outer loop
    vertex 42.525 55.61558895515844 3.3873374259304378e-15
    vertex 34.0 60.537499999999994 38.0
    vertex 34.0 60.537499999999994 2.8199664825478975e-15
  endloop
endfacet
facet normal -0.5 -0.8660254037844387 0.0
  outer loop
    vertex 34.0 60.537499999999994 38.0
    vertex 42.525 55.61558895515844 3.3873374259304378e-15
    vertex 42.525 55.61558895515844 38.0
  endloop
endfacet
facet normal 0.0 7.440544808833503e-17 -1.0
  outer loop
    vertex 19.0 38.4 2.1131147257087147e-15
    vertex 9.5 47.9 2.8199664825478975e-15
    vertex 19.0 47.9 2.8199664825478975e-15
  endloop
endfacet
facet normal 1.0 0.0 0.0
  outer loop
    vertex 42.525 22.284411044841562 3.0489991399174128e-15
    vertex 42.525 0.0 38.0
    vertex 42.525 0.0 2.8199664825478975e-15
  endloop
endfacet
facet normal 1.0 0.0 0.0
  outer loop
    vertex 42.525 0.0 38.0
    vertex 42.525 22.284411044841562 3.0489991399174128e-15
    vertex 42.525 22.28441104484156 38.0
  endloop
endfacet
facet normal -0.7071067811865475 -0.7071067811865476 3.894087463397937e-33
  outer loop
    vertex 28.999999999999996 0.0 38.0
    vertex 19.0 10.0 0.0
    vertex 28.999999999999996 0.0 0.0
  endloop
endfacet
facet normal -0.7071067811865475 -0.7071067811865476 3.894087463397937e-33
  outer loop
    vertex 19.0 10.0 0.0
    vertex 28.999999999999996 0.0 38.0
    vertex 19.0 10.0 38.0
  endloop
endfacet
facet normal -1.0 0.0 0.0
  outer loop
    vertex 0.0 47.9 13.000000000000002
    vertex 0.0 49.800000000000004 9.155811238272284
    vertex 0.0 47.9 2.8199664825478975e-15
  endloop
endfacet
facet normal -1.0 0.0 0.0
  outer loop
    vertex 0.0 49.800000000000004 9.155811238272284
    vertex 0.0 47.9 13.000000000000002
    vertex 0.0 54.4 11.811622476544555
  endloop
endfacet
facet normal -1.0 0.0 0.0
  outer loop
    vertex 0.0 54.4 11.811622476544555
    vertex 0.0 47.9 13.000000000000002
    vertex 0.0 60.9 13.000000000000002
  endloop
endfacet
facet normal -1.0 0.0 0.0
  outer loop
    vertex 0.0 47.9 2.8199664825478975e-15
    vertex 0.0 49.800000000000004 9.155811238272284
    vertex 0.0 49.8 3.8441887617277257
  endloop
endfacet
facet normal -1.0 0.0 0.0
  outer loop
    vertex 0.0 54.4 11.811622476544555
    vertex 0.0 60.9 13.000000000000002
    vertex 0.0 58.99999999999999 9.155811238272278
  endloop
endfacet
facet normal -1.0 0.0 0.0
  outer loop
    vertex 0.0 58.99999999999999 9.155811238272278
    vertex 0.0 60.9 13.000000000000002
    vertex 0.0 58.99999999999999 3.8441887617277244
  endloop
endfacet
facet normal -1.0 0.0 0.0
  outer loop
    vertex 0.0 47.9 2.8199664825478975e-15
    vertex 0.0 54.39999999999999 1.1883775234554477
    vertex 0.0 60.9 2.8199664825478975e-15
  endloop
endfacet
facet normal -1.0 0.0 0.0
  outer loop
    vertex 0.0 54.39999999999999 1.1883775234554477
    vertex 0.0 47.9 2.8199664825478975e-15
    vertex 0.0 49.8 3.8441887617277257
  endloop
endfacet
facet normal -1.0 0.0 0.0
  outer loop
    vertex 0.0 60.9 2.8199664825478975e-15
    vertex 0.0 54.39999999999999 1.1883775234554477
    vertex 0.0 58.99999999999999 3.8441887617277244
  endloop
endfacet
facet normal -1.0 0.0 0.0
  outer loop
    vertex 0.0 60.9 2.8199664825478975e-15
    vertex 0.0 58.99999999999999 3.8441887617277244
    vertex 0.0 60.9 13.000000000000002
  endloop
endfacet
facet normal -1.0 0.0 0.0
  outer loop
    vertex 19.0 46.13190674379654 45.50000000000001
    vertex 19.0 36.13190674379654 38.0
    vertex 19.0 36.13190674379654 45.50000000000001
  endloop
endfacet
facet normal -1.0 0.0 0.0
  outer loop
    vertex 19.0 36.13190674379654 38.0
    vertex 19.0 46.13190674379654 45.50000000000001
    vertex 19.0 38.4 13.000000000000002
  endloop
endfacet
facet normal -1.0 0.0 0.0
  outer loop
    vertex 19.0 38.4 13.000000000000002
    vertex 19.0 46.13190674379654 45.50000000000001
    vertex 19.0 46.13190674379654 38.0
  endloop
endfacet
facet normal -1.0 0.0 0.0
  outer loop
    vertex 19.0 38.4 13.000000000000002
    vertex 19.0 46.13190674379654 38.0
    vertex 19.0 47.9 13.000000000000002
  endloop
endfacet
facet normal -1.0 0.0 0.0
  outer loop
    vertex 19.0 47.9 13.000000000000002
    vertex 19.0 46.13190674379654 38.0
    vertex 19.0 67.9 38.0
  endloop
endfacet
facet normal -1.0 0.0 0.0
  outer loop
    vertex 19.0 47.9 13.000000000000002
    vertex 19.0 67.9 38.0
    vertex 19.0 60.9 13.000000000000002
  endloop
endfacet
facet normal -1.0 0.0 0.0
  outer loop
    vertex 19.0 60.9 13.000000000000002
    vertex 19.0 67.9 38.0
    vertex 19.0 67.9 13.000000000000004
  endloop
endfacet
facet normal -1.0 0.0 0.0
  outer loop
    vertex 19.0 36.13190674379654 38.0
    vertex 19.0 10.0 0.0
    vertex 19.0 10.0 38.0
  endloop
endfacet
facet normal -1.0 0.0 0.0
  outer loop
    vertex 19.0 10.0 0.0
    vertex 19.0 36.13190674379654 38.0
    vertex 19.0 38.4 2.1131147257087147e-15
  endloop
endfacet
facet normal -1.0 0.0 0.0
  outer loop
    vertex 19.0 38.4 2.1131147257087147e-15
    vertex 19.0 36.13190674379654 38.0
    vertex 19.0 38.4 13.000000000000002
  endloop
endfacet
facet normal 0.0 -1.0 0.0
  outer loop
    vertex 42.525 0.0 2.8199664825478975e-15
    vertex 28.999999999999996 0.0 38.0
    vertex 28.999999999999996 0.0 0.0
  endloop
endfacet
facet normal 0.0 -1.0 0.0
  outer loop
    vertex 28.999999999999996 0.0 38.0
    vertex 42.525 0.0 2.8199664825478975e-15
    vertex 42.525 0.0 38.0
  endloop
endfacet
facet normal 0.0 1.0 0.0
  outer loop
    vertex 28.999999999999996 77.89999999999999 38.0
    vertex 42.525 77.89999999999999 5.639932965095795e-15
    vertex 28.999999999999996 77.89999999999999 5.639932965095795e-15
  endloop
endfacet
facet normal 0.0 1.0 0.0
  outer loop
    vertex 42.525 77.89999999999999 5.639932965095795e-15
    vertex 28.999999999999996 77.89999999999999 38.0
    vertex 42.525 77.89999999999999 38.0
  endloop
endfacet
facet normal 1.0 3.3547255192154932e-18 4.419740625937091e-17
  outer loop
    vertex 34.0 60.537499999999994 2.8199664825478975e-15
    vertex 34.0 17.3625 38.0
    vertex 34.0 17.3625 2.8199664825478975e-15
  endloop
endfacet
facet normal 1.0 3.3547255192154932e-18 4.419740625937091e-17
  outer loop
    vertex 34.0 17.3625 38.0
    vertex 34.0 60.537499999999994 2.8199664825478975e-15
    vertex 34.0 36.13190674379654 38.0
  endloop
endfacet
facet normal 1.0 3.3547255192154932e-18 4.419740625937091e-17
  outer loop
    vertex 34.0 36.13190674379654 38.0
    vertex 34.0 60.537499999999994 2.8199664825478975e-15
    vertex 34.0 36.13190674379654 43.000000000000014
  endloop
endfacet
facet normal 1.0 3.3547255192154932e-18 4.419740625937091e-17
  outer loop
    vertex 34.0 36.13190674379654 43.000000000000014
    vertex 34.0 60.537499999999994 2.8199664825478975e-15
    vertex 34.0 46.13190674379654 38.0
  endloop
endfacet
facet normal 1.0 3.3547255192154932e-18 4.419740625937091e-17
  outer loop
    vertex 34.0 46.13190674379654 38.0
    vertex 34.0 60.537499999999994 2.8199664825478975e-15
    vertex 34.0 60.537499999999994 38.0
  endloop
endfacet
facet normal 1.0 3.3547255192154932e-18 4.419740625937091e-17
  outer loop
    vertex 34.0 46.13190674379654 43.000000000000014
    vertex 34.0 36.13190674379654 43.000000000000014
    vertex 34.0 46.13190674379654 38.0
  endloop
endfacet
facet normal 5.438176717901703e-32 4.028523546496993e-16 -1.0
  outer loop
    vertex 19.0 60.9 2.8199664825478975e-15
    vertex 9.5 60.9 2.8199664825478975e-15
    vertex 19.0 67.9 5.639932965095795e-15
  endloop
endfacet
facet normal -1.0 0.0 0.0
  outer loop
    vertex 19.0 67.9 13.000000000000004
    vertex 19.0 60.9 2.8199664825478975e-15
    vertex 19.0 60.9 13.000000000000002
  endloop
endfacet
facet normal -1.0 0.0 0.0
  outer loop
    vertex 19.0 60.9 2.8199664825478975e-15
    vertex 19.0 67.9 13.000000000000004
    vertex 19.0 67.9 5.639932965095795e-15
  endloop
endfacet
facet normal -0.5931990380498503 0.8050558373533678 8.979111513401993e-18
  outer loop
    vertex 9.5 60.9 13.000000000000002
    vertex 19.0 67.9 5.639932965095795e-15
    vertex 9.5 60.9 2.8199664825478975e-15
  endloop
endfacet
facet normal -0.5931990380498503 0.8050558373533678 8.979111513401993e-18
  outer loop
    vertex 19.0 67.9 5.639932965095795e-15
    vertex 9.5 60.9 13.000000000000002
    vertex 19.0 67.9 13.000000000000004
  endloop
endfacet
facet normal -4.2540233622319964e-17 -5.746791725615727e-17 1.0
  outer loop
    vertex 9.5 47.9 13.000000000000002
    vertex 0.0 60.9 13.000000000000002
    vertex 0.0 47.9 13.000000000000002
  endloop
endfacet
facet normal -4.2540233622319964e-17 -5.746791725615727e-17 1.0
  outer loop
    vertex 0.0 60.9 13.000000000000002
    vertex 9.5 47.9 13.000000000000002
    vertex 9.5 60.9 13.000000000000002
  endloop
endfacet
facet normal -4.2540233622319964e-17 -5.746791725615727e-17 1.0
  outer loop
    vertex 9.5 60.9 13.000000000000002
    vertex 9.5 47.9 13.000000000000002
    vertex 19.0 38.4 13.000000000000002
  endloop
endfacet
facet normal -4.2540233622319964e-17 -5.746791725615727e-17 1.0
  outer loop
    vertex 9.5 60.9 13.000000000000002
    vertex 19.0 38.4 13.000000000000002
    vertex 19.0 67.9 13.000000000000004
  endloop
endfacet
facet normal -4.2540233622319964e-17 -5.746791725615727e-17 1.0
  outer loop
    vertex 19.0 67.9 13.000000000000004
    vertex 19.0 38.4 13.000000000000002
    vertex 19.0 47.9 13.000000000000002
  endloop
endfacet
facet normal -4.2540233622319964e-17 -5.746791725615727e-17 1.0
  outer loop
    vertex 19.0 67.9 13.000000000000004
    vertex 19.0 47.9 13.000000000000002
    vertex 19.0 60.9 13.000000000000002
  endloop
endfacet
facet normal 0.0 1.0 0.0
  outer loop
    vertex 0.0 60.9 13.000000000000002
    vertex 9.5 60.9 2.8199664825478975e-15
    vertex 0.0 60.9 2.8199664825478975e-15
  endloop
endfacet
facet normal 0.0 1.0 0.0
  outer loop
    vertex 9.5 60.9 2.8199664825478975e-15
    vertex 0.0 60.9 13.000000000000002
    vertex 9.5 60.9 13.000000000000002
  endloop
endfacet
facet normal -0.0 -1.0 -0.0
  outer loop
    vertex 30.0 58.99999999999999 9.155811238272278
    vertex 0.0 58.99999999999999 3.8441887617277244
    vertex 30.0 58.99999999999999 3.8441887617277244
  endloop
endfacet
facet normal -0.0 -1.0 -0.0
  outer loop
    vertex 0.0 58.99999999999999 3.8441887617277244
    vertex 30.0 58.99999999999999 9.155811238272278
    vertex 0.0 58.99999999999999 9.155811238272278
  endloop
endfacet
facet normal -1.0 0.0 0.0
  outer loop
    vertex 30.0 49.800000000000004 9.155811238272284
    vertex 30.0 54.39999999999999 1.1883775234554477
    vertex 30.0 49.8 3.8441887617277257
  endloop
endfacet
facet normal -1.0 0.0 0.0
  outer loop
    vertex 30.0 54.39999999999999 1.1883775234554477
    vertex 30.0 49.800000000000004 9.155811238272284
    vertex 30.0 54.4 11.811622476544555
  endloop
endfacet
facet normal -1.0 0.0 0.0
  outer loop
    vertex 30.0 54.39999999999999 1.1883775234554477
    vertex 30.0 54.4 11.811622476544555
    vertex 30.0 58.99999999999999 3.8441887617277244
  endloop
endfacet
facet normal -1.0 0.0 0.0
  outer loop
    vertex 30.0 58.99999999999999 3.8441887617277244
    vertex 30.0 54.4 11.811622476544555
    vertex 30.0 58.99999999999999 9.155811238272278
  endloop
endfacet
facet normal 0.0 1.0 -1.061809831177011e-15
  outer loop
    vertex 0.0 49.800000000000004 9.155811238272284
    vertex 30.0 49.8 3.8441887617277257
    vertex 0.0 49.8 3.8441887617277257
  endloop
endfacet
facet normal 0.0 1.0 -1.061809831177011e-15
  outer loop
    vertex 30.0 49.8 3.8441887617277257
    vertex 0.0 49.800000000000004 9.155811238272284
    vertex 30.0 49.800000000000004 9.155811238272284
  endloop
endfacet
facet normal 0.0 0.5000000000000001 0.8660254037844386
  outer loop
    vertex 30.0 49.8 3.8441887617277257
    vertex 0.0 54.39999999999999 1.1883775234554477
    vertex 0.0 49.8 3.8441887617277257
  endloop
endfacet
facet normal 0.0 0.5000000000000001 0.8660254037844386
  outer loop
    vertex 0.0 54.39999999999999 1.1883775234554477
    vertex 30.0 49.8 3.8441887617277257
    vertex 30.0 54.39999999999999 1.1883775234554477
  endloop
endfacet
facet normal -0.0 -0.5000000000000004 -0.8660254037844385
  outer loop
    vertex 30.0 58.99999999999999 9.155811238272278
    vertex 0.0 54.4 11.811622476544555
    vertex 0.0 58.99999999999999 9.155811238272278
  endloop
endfacet
facet normal -0.0 -0.5000000000000004 -0.8660254037844385
  outer loop
    vertex 0.0 54.4 11.811622476544555
    vertex 30.0 58.99999999999999 9.155811238272278
    vertex 30.0 54.4 11.811622476544555
  endloop
endfacet
facet normal 0.0 0.4999999999999991 -0.866025403784439
  outer loop
    vertex 30.0 54.4 11.811622476544555
    vertex 0.0 49.800000000000004 9.155811238272284
    vertex 0.0 54.4 11.811622476544555
  endloop
endfacet
facet normal 0.0 0.4999999999999991 -0.866025403784439
  outer loop
    vertex 0.0 49.800000000000004 9.155811238272284
    vertex 30.0 54.4 11.811622476544555
    vertex 30.0 49.800000000000004 9.155811238272284
  endloop
endfacet
facet normal 0.0 -0.49999999999999994 0.8660254037844387
  outer loop
    vertex 30.0 54.39999999999999 1.1883775234554477
    vertex 0.0 58.99999999999999 3.8441887617277244
    vertex 0.0 54.39999999999999 1.1883775234554477
  endloop
endfacet
facet normal 0.0 -0.49999999999999994 0.8660254037844387
  outer loop
    vertex 0.0 58.99999999999999 3.8441887617277244
    vertex 30.0 54.39999999999999 1.1883775234554477
    vertex 30.0 58.99999999999999 3.8441887617277244
  endloop
endfacet
facet normal 0.0 -1.0 0.0
  outer loop
    vertex 41.0 36.13190674379654 53.000000000000014
    vertex 34.0 36.13190674379654 43.000000000000014
    vertex 41.0 36.13190674379654 43.000000000000014
  endloop
endfacet
facet normal 0.0 -1.0 0.0
  outer loop
    vertex 34.0 36.13190674379654 43.000000000000014
    vertex 41.0 36.13190674379654 53.000000000000014
    vertex 19.0 36.13190674379654 45.50000000000001
  endloop
endfacet
facet normal 0.0 -1.0 0.0
  outer loop
    vertex 19.0 36.13190674379654 45.50000000000001
    vertex 41.0 36.13190674379654 53.000000000000014
    vertex 29.999999999999996 36.13190674379654 53.000000000000014
  endloop
endfacet
facet normal 0.0 -1.0 0.0
  outer loop
    vertex 34.0 36.13190674379654 43.000000000000014
    vertex 19.0 36.13190674379654 38.0
    vertex 34.0 36.13190674379654 38.0
  endloop
endfacet
facet normal 0.0 -1.0 0.0
  outer loop
    vertex 19.0 36.13190674379654 38.0
    vertex 34.0 36.13190674379654 43.000000000000014
    vertex 19.0 36.13190674379654 45.50000000000001
  endloop
endfacet
facet normal 0.0 0.0 1.0
  outer loop
    vertex 42.525 0.0 38.0
    vertex 34.0 17.3625 38.0
    vertex 28.999999999999996 0.0 38.0
  endloop
endfacet
facet normal 0.0 0.0 1.0
  outer loop
    vertex 34.0 17.3625 38.0
    vertex 42.525 0.0 38.0
    vertex 42.525 22.28441104484156 38.0
  endloop
endfacet
facet normal 0.0 0.0 1.0
  outer loop
    vertex 28.999999999999996 0.0 38.0
    vertex 19.0 36.13190674379654 38.0
    vertex 19.0 10.0 38.0
  endloop
endfacet
facet normal 0.0 0.0 1.0
  outer loop
    vertex 19.0 36.13190674379654 38.0
    vertex 28.999999999999996 0.0 38.0
    vertex 34.0 36.13190674379654 38.0
  endloop
endfacet
facet normal 0.0 0.0 1.0
  outer loop
    vertex 34.0 36.13190674379654 38.0
    vertex 28.999999999999996 0.0 38.0
    vertex 34.0 17.3625 38.0
  endloop
endfacet
facet normal 0.0 0.0 1.0
  outer loop
    vertex 34.0 46.13190674379654 38.0
    vertex 19.0 67.9 38.0
    vertex 19.0 46.13190674379654 38.0
  endloop
endfacet
facet normal 0.0 0.0 1.0
  outer loop
    vertex 19.0 67.9 38.0
    vertex 34.0 46.13190674379654 38.0
    vertex 28.999999999999996 77.89999999999999 38.0
  endloop
endfacet
facet normal 0.0 0.0 1.0
  outer loop
    vertex 28.999999999999996 77.89999999999999 38.0
    vertex 34.0 46.13190674379654 38.0
    vertex 34.0 60.537499999999994 38.0
  endloop
endfacet
facet normal 0.0 0.0 1.0
  outer loop
    vertex 28.999999999999996 77.89999999999999 38.0
    vertex 34.0 60.537499999999994 38.0
    vertex 42.525 77.89999999999999 38.0
  endloop
endfacet
facet normal 0.0 0.0 1.0
  outer loop
    vertex 42.525 77.89999999999999 38.0
    vertex 34.0 60.537499999999994 38.0
    vertex 42.525 55.61558895515844 38.0
  endloop
endfacet
facet normal -0.5633368246415104 2.2398866363015996e-32 0.8262273428075472
  outer loop
    vertex 29.999999999999996 36.13190674379654 53.000000000000014
    vertex 19.0 46.13190674379654 45.50000000000001
    vertex 19.0 36.13190674379654 45.50000000000001
  endloop
endfacet
facet normal -0.5633368246415104 2.2398866363015996e-32 0.8262273428075472
  outer loop
    vertex 19.0 46.13190674379654 45.50000000000001
    vertex 29.999999999999996 36.13190674379654 53.000000000000014
    vertex 29.999999999999996 46.13190674379654 53.000000000000014
  endloop
endfacet
facet normal -0.7071067811865475 0.7071067811865476 -4.347444854831169e-18
  outer loop
    vertex 19.0 67.9 13.000000000000004
    vertex 28.999999999999996 77.89999999999999 5.639932965095795e-15
    vertex 19.0 67.9 5.639932965095795e-15
  endloop
endfacet
facet normal -0.7071067811865475 0.7071067811865476 -4.347444854831169e-18
  outer loop
    vertex 28.999999999999996 77.89999999999999 5.639932965095795e-15
    vertex 19.0 67.9 13.000000000000004
    vertex 28.999999999999996 77.89999999999999 38.0
  endloop
endfacet
facet normal -0.7071067811865475 0.7071067811865476 -4.347444854831169e-18
  outer loop
    vertex 28.999999999999996 77.89999999999999 38.0
    vertex 19.0 67.9 13.000000000000004
    vertex 19.0 67.9 38.0
  endloop
endfacet
facet normal 0.0 1.0 0.0
  outer loop
    vertex 19.0 46.13190674379654 45.50000000000001
    vertex 34.0 46.13190674379654 38.0
    vertex 19.0 46.13190674379654 38.0
  endloop
endfacet
facet normal 0.0 1.0 0.0
  outer loop
    vertex 34.0 46.13190674379654 38.0
    vertex 19.0 46.13190674379654 45.50000000000001
    vertex 34.0 46.13190674379654 43.000000000000014
  endloop
endfacet
facet normal 0.0 1.0 0.0
  outer loop
    vertex 34.0 46.13190674379654 43.000000000000014
    vertex 19.0 46.13190674379654 45.50000000000001
    vertex 41.0 46.13190674379654 43.000000000000014
  endloop
endfacet
facet normal 0.0 1.0 0.0
  outer loop
    vertex 41.0 46.13190674379654 43.000000000000014
    vertex 19.0 46.13190674379654 45.50000000000001
    vertex 41.0 46.13190674379654 53.000000000000014
  endloop
endfacet
facet normal 0.0 1.0 0.0
  outer loop
    vertex 41.0 46.13190674379654 53.000000000000014
    vertex 19.0 46.13190674379654 45.50000000000001
    vertex 29.999999999999996 46.13190674379654 53.000000000000014
  endloop
endfacet
facet normal 1.0 0.0 0.0
  outer loop
    vertex 41.0 46.13190674379654 43.000000000000014
    vertex 41.0 36.13190674379654 53.000000000000014
    vertex 41.0 36.13190674379654 43.000000000000014
  endloop
endfacet
facet normal 1.0 0.0 0.0
  outer loop
    vertex 41.0 36.13190674379654 53.000000000000014
    vertex 41.0 46.13190674379654 43.000000000000014
    vertex 41.0 46.13190674379654 53.000000000000014
  endloop
endfacet
facet normal 0.0 -1.0 0.0
  outer loop
    vertex 9.5 47.9 13.000000000000002
    vertex 0.0 47.9 2.8199664825478975e-15
    vertex 9.5 47.9 2.8199664825478975e-15
  endloop
endfacet
facet normal 0.0 -1.0 0.0
  outer loop
    vertex 0.0 47.9 2.8199664825478975e-15
    vertex 9.5 47.9 13.000000000000002
    vertex 0.0 47.9 13.000000000000002
  endloop
endfacet
facet normal 0.0 0.0 -1.0
  outer loop
    vertex 41.0 46.13190674379654 43.000000000000014
    vertex 34.0 36.13190674379654 43.000000000000014
    vertex 34.0 46.13190674379654 43.000000000000014
  endloop
endfacet
facet normal 0.0 0.0 -1.0
  outer loop
    vertex 34.0 36.13190674379654 43.000000000000014
    vertex 41.0 46.13190674379654 43.000000000000014
    vertex 41.0 36.13190674379654 43.000000000000014
  endloop
endfacet
facet normal 0.0 0.0 1.0
  outer loop
    vertex 41.0 36.13190674379654 53.000000000000014
    vertex 29.999999999999996 46.13190674379654 53.000000000000014
    vertex 29.999999999999996 36.13190674379654 53.000000000000014
  endloop
endfacet
facet normal 0.0 0.0 1.0
  outer loop
    vertex 29.999999999999996 46.13190674379654 53.000000000000014
    vertex 41.0 36.13190674379654 53.000000000000014
    vertex 41.0 46.13190674379654 53.000000000000014
  endloop
endfacet
facet normal 3.2523290556736515e-17 4.369481344241365e-17 -1.0
  outer loop
    vertex 9.5 60.9 2.8199664825478975e-15
    vertex 0.0 47.9 2.8199664825478975e-15
    vertex 0.0 60.9 2.8199664825478975e-15
  endloop
endfacet
facet normal 3.2523290556736515e-17 4.369481344241365e-17 -1.0
  outer loop
    vertex 0.0 47.9 2.8199664825478975e-15
    vertex 9.5 60.9 2.8199664825478975e-15
    vertex 9.5 47.9 2.8199664825478975e-15
  endloop
endfacet
facet normal 3.2523290556736515e-17 4.369481344241365e-17 -1.0
  outer loop
    vertex 9.5 47.9 2.8199664825478975e-15
    vertex 9.5 60.9 2.8199664825478975e-15
    vertex 19.0 60.9 2.8199664825478975e-15
  endloop
endfacet
facet normal 3.2523290556736515e-17 4.369481344241365e-17 -1.0
  outer loop
    vertex 9.5 47.9 2.8199664825478975e-15
    vertex 19.0 60.9 2.8199664825478975e-15
    vertex 19.0 47.9 2.8199664825478975e-15
  endloop
endfacet
facet normal 3.2523290556736515e-17 4.369481344241365e-17 -1.0
  outer loop
    vertex 28.999999999999996 77.89999999999999 5.639932965095795e-15
    vertex 19.0 60.9 2.8199664825478975e-15
    vertex 19.0 67.9 5.639932965095795e-15
  endloop
endfacet
facet normal 3.2523290556736515e-17 4.369481344241365e-17 -1.0
  outer loop
    vertex 19.0 60.9 2.8199664825478975e-15
    vertex 28.999999999999996 77.89999999999999 5.639932965095795e-15
    vertex 19.0 47.9 2.8199664825478975e-15
  endloop
endfacet
facet normal 3.2523290556736515e-17 4.369481344241365e-17 -1.0
  outer loop
    vertex 19.0 47.9 2.8199664825478975e-15
    vertex 28.999999999999996 77.89999999999999 5.639932965095795e-15
    vertex 19.0 38.4 2.1131147257087147e-15
  endloop
endfacet
facet normal 3.2523290556736515e-17 4.369481344241365e-17 -1.0
  outer loop
    vertex 19.0 38.4 2.1131147257087147e-15
    vertex 28.999999999999996 77.89999999999999 5.639932965095795e-15
    vertex 19.0 10.0 0.0
  endloop
endfacet
facet normal 3.2523290556736515e-17 4.369481344241365e-17 -1.0
  outer loop
    vertex 19.0 10.0 0.0
    vertex 28.999999999999996 77.89999999999999 5.639932965095795e-15
    vertex 28.999999999999996 0.0 0.0
  endloop
endfacet
facet normal 3.2523290556736515e-17 4.369481344241365e-17 -1.0
  outer loop
    vertex 28.999999999999996 0.0 0.0
    vertex 28.999999999999996 77.89999999999999 5.639932965095795e-15
    vertex 34.0 60.537499999999994 2.8199664825478975e-15
  endloop
endfacet
facet normal 3.2523290556736515e-17 4.369481344241365e-17 -1.0
  outer loop
    vertex 34.0 60.537499999999994 2.8199664825478975e-15
    vertex 28.999999999999996 77.89999999999999 5.639932965095795e-15
    vertex 42.525 77.89999999999999 5.639932965095795e-15
  endloop
endfacet
facet normal 3.2523290556736515e-17 4.369481344241365e-17 -1.0
  outer loop
    vertex 34.0 60.537499999999994 2.8199664825478975e-15
    vertex 42.525 77.89999999999999 5.639932965095795e-15
    vertex 42.525 55.61558895515844 3.3873374259304378e-15
  endloop
endfacet
facet normal 3.2523290556736515e-17 4.369481344241365e-17 -1.0
  outer loop
    vertex 28.999999999999996 0.0 0.0
    vertex 34.0 17.3625 2.8199664825478975e-15
    vertex 42.525 0.0 2.8199664825478975e-15
  endloop
endfacet
facet normal 3.2523290556736515e-17 4.369481344241365e-17 -1.0
  outer loop
    vertex 34.0 17.3625 2.8199664825478975e-15
    vertex 28.999999999999996 0.0 0.0
    vertex 34.0 60.537499999999994 2.8199664825478975e-15
  endloop
endfacet
facet normal 3.2523290556736515e-17 4.369481344241365e-17 -1.0
  outer loop
    vertex 42.525 0.0 2.8199664825478975e-15
    vertex 34.0 17.3625 2.8199664825478975e-15
    vertex 42.525 22.284411044841562 3.0489991399174128e-15
  endloop
endfacet
facet normal -0.7071067811865476 -0.7071067811865476 0.0
  outer loop
    vertex 9.5 47.9 13.000000000000002
    vertex 19.0 38.4 2.1131147257087147e-15
    vertex 19.0 38.4 13.000000000000002
  endloop
endfacet
facet normal -0.7071067811865476 -0.7071067811865476 0.0
  outer loop
    vertex 19.0 38.4 2.1131147257087147e-15
    vertex 9.5 47.9 13.000000000000002
    vertex 9.5 47.9 2.8199664825478975e-15
  endloop
endfacet
facet normal -0.5 0.8660254037844387 2.1478853994931096e-17
  outer loop
    vertex 34.0 17.3625 38.0
    vertex 42.525 22.284411044841562 3.0489991399174128e-15
    vertex 34.0 17.3625 2.8199664825478975e-15
  endloop
endfacet
facet normal -0.5 0.8660254037844387 2.1478853994931096e-17
  outer loop
    vertex 42.525 22.284411044841562 3.0489991399174128e-15
    vertex 34.0 17.3625 38.0
    vertex 42.525 22.28441104484156 38.0
  endloop
endfacet
facet normal 1.0 0.0 0.0
  outer loop
    vertex 42.525 77.89999999999999 5.639932965095795e-15
    vertex 42.525 55.61558895515844 38.0
    vertex 42.525 55.61558895515844 3.3873374259304378e-15
  endloop
endfacet
facet normal 1.0 0.0 0.0
  outer loop
    vertex 42.525 55.61558895515844 38.0
    vertex 42.525 77.89999999999999 5.639932965095795e-15
    vertex 42.525 77.89999999999999 38.0
  endloop
endfacet
facet normal -1.0 0.0 0.0
  outer loop
    vertex 19.0 47.9 13.000000000000002
    vertex 19.0 38.4 2.1131147257087147e-15
    vertex 19.0 38.4 13.000000000000002
  endloop
endfacet
facet normal -1.0 0.0 0.0
  outer loop
    vertex 19.0 38.4 2.1131147257087147e-15
    vertex 19.0 47.9 13.000000000000002
    vertex 19.0 47.9 2.8199664825478975e-15
  endloop
endfacet
endsolid AXA indicator holder
