solid Metric Long 375 12pt - part2
facet normal 8.15930289413934e-19 -4.317632668109621e-17 -1.0
  outer loop
    vertex 9.887808424911854e-17 70.231 -3.0742830918123947e-15
    vertex 118.63811015870743 -6.396284060653125e-14 0.0
    vertex 0.0 -9.407871004706294e-14 0.0
  endloop
endfacet
facet normal 8.15930289413934e-19 -4.317632668109621e-17 -1.0
  outer loop
    vertex 118.63811015870743 -6.396284060653125e-14 0.0
    vertex 9.887808424911854e-17 70.231 -3.0742830918123947e-15
    vertex 118.63811015870743 70.231 -2.8806822366977637e-15
  endloop
endfacet
facet normal 0.9238795325112868 1.7080150311894662e-17 0.3826834323650899
  outer loop
    vertex 4.249984758797317 67.691 8.921749999999998
    vertex 2.974905716159477 2.54 12.000063117833975
    vertex 4.249984758797317 2.54 8.92175
  endloop
endfacet
facet normal 0.9238795325112868 1.7080150311894662e-17 0.3826834323650899
  outer loop
    vertex 2.974905716159477 2.54 12.000063117833975
    vertex 4.249984758797317 67.691 8.921749999999998
    vertex 2.9749057161594776 67.691 12.000063117833971
  endloop
endfacet
facet normal 0.7933533402912353 2.926429758119466e-17 0.6087614290087204
  outer loop
    vertex 6.278342598325501 67.691 6.278342598325495
    vertex 4.249984758797317 2.54 8.92175
    vertex 6.278342598325501 2.54 6.278342598325499
  endloop
endfacet
facet normal 0.7933533402912353 2.926429758119466e-17 0.6087614290087204
  outer loop
    vertex 4.249984758797317 2.54 8.92175
    vertex 6.278342598325501 67.691 6.278342598325495
    vertex 4.249984758797317 67.691 8.921749999999998
  endloop
endfacet
facet normal -1.0 1.7623849293751813e-18 -2.1537139488595966e-18
  outer loop
    vertex 0.0 70.231 15.303499999999994
    vertex 0.0 -9.407871004706294e-14 0.0
    vertex 0.0 -9.407871004706294e-14 15.3035
  endloop
endfacet
facet normal -1.0 1.7623849293751813e-18 -2.1537139488595966e-18
  outer loop
    vertex 0.0 -9.407871004706294e-14 0.0
    vertex 0.0 70.231 15.303499999999994
    vertex 9.887808424911854e-17 70.231 -3.0742830918123947e-15
  endloop
endfacet
facet normal 0.9914448613738105 1.7510804823748097e-20 0.13052619222005107
  outer loop
    vertex 2.9749057161594776 67.691 12.000063117833971
    vertex 2.5400000000000023 2.54 15.303499999999998
    vertex 2.974905716159477 2.54 12.000063117833975
  endloop
endfacet
facet normal 0.9914448613738105 1.7510804823748097e-20 0.13052619222005107
  outer loop
    vertex 2.5400000000000023 2.54 15.303499999999998
    vertex 2.9749057161594776 67.691 12.000063117833971
    vertex 2.5400000000000023 67.691 15.303499999999994
  endloop
endfacet
facet normal 0.6087614290087211 3.945413133187461e-17 0.7933533402912349
  outer loop
    vertex 8.921749999999998 2.54 4.249984758797315
    vertex 6.278342598325501 67.691 6.278342598325495
    vertex 6.278342598325501 2.54 6.278342598325499
  endloop
endfacet
facet normal 0.6087614290087211 3.945413133187461e-17 0.7933533402912349
  outer loop
    vertex 6.278342598325501 67.691 6.278342598325495
    vertex 8.921749999999998 2.54 4.249984758797315
    vertex 8.921749999999998 67.691 4.249984758797312
  endloop
endfacet
facet normal 0.6087614290087205 3.9454131331874635e-17 0.7933533402912352
  outer loop
    vertex 34.04235 2.5400000000000027 4.953890206993304
    vertex 31.567278990073927 67.691 6.853078990073919
    vertex 31.567278990073927 2.5400000000000027 6.8530789900739215
  endloop
endfacet
facet normal 0.6087614290087205 3.9454131331874635e-17 0.7933533402912352
  outer loop
    vertex 31.567278990073927 67.691 6.853078990073919
    vertex 34.04235 2.5400000000000027 4.953890206993304
    vertex 34.04235 67.691 4.9538902069933
  endloop
endfacet
facet normal 2.8610925010832864e-32 5.2106255397957025e-17 1.0
  outer loop
    vertex 52.617331694778166 2.5400000000000036 11.660498080199076
    vertex 51.3334 67.691 11.660498080199073
    vertex 51.3334 2.540000000000004 11.660498080199076
  endloop
endfacet
facet normal 2.8610925010832864e-32 5.2106255397957025e-17 1.0
  outer loop
    vertex 51.3334 67.691 11.660498080199073
    vertex 52.617331694778166 2.5400000000000036 11.660498080199076
    vertex 52.617331694778166 67.691 11.660498080199073
  endloop
endfacet
facet normal 0.7933533474726427 2.926429707130116e-17 0.6087614196497281
  outer loop
    vertex 55.41288273895457 67.691 6.987782924825331
    vertex 53.5439679733973 2.5400000000000027 9.423400126469021
    vertex 55.41288273895457 2.5400000000000027 6.987782924825335
  endloop
endfacet
facet normal 0.7933533474726427 2.926429707130116e-17 0.6087614196497281
  outer loop
    vertex 53.5439679733973 2.5400000000000027 9.423400126469021
    vertex 55.41288273895457 67.691 6.987782924825331
    vertex 53.5439679733973 67.691 9.42340012646902
  endloop
endfacet
facet normal 0.1305262002224611 5.125640964373844e-17 0.9914448603202732
  outer loop
    vertex 63.728599912379664 2.5400000000000027 3.543299999999996
    vertex 60.6848361670448 67.691 3.944019124132732
    vertex 60.6848361670448 2.5400000000000027 3.9440191241327356
  endloop
endfacet
facet normal 0.1305262002224611 5.125640964373844e-17 0.9914448603202732
  outer loop
    vertex 60.6848361670448 67.691 3.944019124132732
    vertex 63.728599912379664 2.5400000000000027 3.543299999999996
    vertex 63.728599912379664 67.691 3.5432999999999923
  endloop
endfacet
facet normal -0.7933533402912349 3.4176259411512714e-17 0.6087614290087211
  outer loop
    vertex 50.36730979300669 67.691 9.328149999999996
    vertex 48.468121009926065 2.5400000000000027 6.853078990073926
    vertex 50.36730979300669 2.5400000000000027 9.328149999999999
  endloop
endfacet
facet normal -0.7933533402912349 3.4176259411512714e-17 0.6087614290087211
  outer loop
    vertex 48.468121009926065 2.5400000000000027 6.853078990073926
    vertex 50.36730979300669 67.691 9.328149999999996
    vertex 48.468121009926065 67.691 6.853078990073922
  endloop
endfacet
facet normal 0.7933533402912349 2.9264297581194695e-17 0.6087614290087211
  outer loop
    vertex 31.567278990073927 67.691 6.853078990073919
    vertex 29.66809020699331 2.5400000000000027 9.328149999999994
    vertex 31.567278990073927 2.5400000000000027 6.8530789900739215
  endloop
endfacet
facet normal 0.7933533402912349 2.9264297581194695e-17 0.6087614290087211
  outer loop
    vertex 29.66809020699331 2.5400000000000027 9.328149999999994
    vertex 31.567278990073927 67.691 6.853078990073919
    vertex 29.66809020699331 67.691 9.328149999999992
  endloop
endfacet
facet normal 2.7806336247555627e-32 5.210625539795702e-17 1.0
  outer loop
    vertex 76.1748828320311 2.5400000000000036 11.69413213198695
    vertex 74.85379999999999 67.691 11.694132131986946
    vertex 74.85379999999999 2.540000000000004 11.69413213198695
  endloop
endfacet
facet normal 2.7806336247555627e-32 5.210625539795702e-17 1.0
  outer loop
    vertex 74.85379999999999 67.691 11.694132131986946
    vertex 76.1748828320311 2.5400000000000036 11.69413213198695
    vertex 76.1748828320311 67.691 11.694132131986946
  endloop
endfacet
facet normal 0.3826834323650901 4.6955231233322166e-17 0.9238795325112866
  outer loop
    vertex 83.68752136878943 2.5400000000000027 4.618718287338204
    vertex 81.01964999999998 67.691 5.723786790957664
    vertex 81.01964999999998 2.5400000000000027 5.723786790957668
  endloop
endfacet
facet normal 0.3826834323650901 4.6955231233322166e-17 0.9238795325112866
  outer loop
    vertex 81.01964999999998 67.691 5.723786790957664
    vertex 83.68752136878943 2.5400000000000027 4.618718287338204
    vertex 83.68752136878943 67.691 4.618718287338201
  endloop
endfacet
facet normal -0.6087614290087201 4.3223212208200207e-17 0.7933533402912357
  outer loop
    vertex 24.328657401674498 2.540000000000002 6.278342598325494
    vertex 21.685249999999993 67.691 4.249984758797308
    vertex 21.685249999999993 2.5400000000000014 4.249984758797312
  endloop
endfacet
facet normal -0.6087614290087201 4.3223212208200207e-17 0.7933533402912357
  outer loop
    vertex 21.685249999999993 67.691 4.249984758797308
    vertex 24.328657401674498 2.540000000000002 6.278342598325494
    vertex 24.328657401674498 67.691 6.278342598325492
  endloop
endfacet
facet normal 0.9238795325112874 1.7080150311894558e-17 0.38268343236508795
  outer loop
    vertex 29.66809020699331 67.691 9.328149999999992
    vertex 28.761441839944414 2.5400000000000036 11.516992784032869
    vertex 29.66809020699331 2.5400000000000027 9.328149999999994
  endloop
endfacet
facet normal 0.9238795325112874 1.7080150311894558e-17 0.38268343236508795
  outer loop
    vertex 28.761441839944414 2.5400000000000036 11.516992784032869
    vertex 29.66809020699331 67.691 9.328149999999992
    vertex 28.761441839944414 67.691 11.516992784032865
  endloop
endfacet
facet normal 0.9238795325112872 1.7080150311894598e-17 0.3826834323650887
  outer loop
    vertex 76.97078679095766 67.691 9.772649999999992
    vertex 76.1748828320311 2.5400000000000036 11.69413213198695
    vertex 76.97078679095766 2.5400000000000027 9.772649999999995
  endloop
endfacet
facet normal 0.9238795325112872 1.7080150311894598e-17 0.3826834323650887
  outer loop
    vertex 76.1748828320311 2.5400000000000036 11.69413213198695
    vertex 76.97078679095766 67.691 9.772649999999992
    vertex 76.1748828320311 67.691 11.694132131986946
  endloop
endfacet
facet normal -0.923879532511287 2.2800251014869675e-17 0.3826834323650892
  outer loop
    vertex 51.3334 2.540000000000004 11.660498080199076
    vertex 50.36730979300669 67.691 9.328149999999996
    vertex 50.36730979300669 2.5400000000000027 9.328149999999999
  endloop
endfacet
facet normal -0.923879532511287 2.2800251014869675e-17 0.3826834323650892
  outer loop
    vertex 50.36730979300669 67.691 9.328149999999996
    vertex 51.3334 2.540000000000004 11.660498080199076
    vertex 51.3334 67.691 11.660498080199073
  endloop
endfacet
facet normal -0.7933533402912356 3.417625941151267e-17 0.6087614290087202
  outer loop
    vertex 96.13021320904231 67.691 9.772649999999992
    vertex 94.37230308145122 2.5400000000000027 7.481696918548762
    vertex 96.13021320904231 2.5400000000000027 9.772649999999995
  endloop
endfacet
facet normal -0.7933533402912356 3.417625941151267e-17 0.6087614290087202
  outer loop
    vertex 94.37230308145122 2.5400000000000027 7.481696918548762
    vertex 96.13021320904231 67.691 9.772649999999992
    vertex 94.37230308145122 67.691 7.481696918548759
  endloop
endfacet
facet normal -0.9238795325112872 2.280025101486964e-17 0.3826834323650886
  outer loop
    vertex 96.9772 2.540000000000004 11.817456997880896
    vertex 96.13021320904231 67.691 9.772649999999992
    vertex 96.13021320904231 2.5400000000000027 9.772649999999995
  endloop
endfacet
facet normal -0.9238795325112872 2.280025101486964e-17 0.3826834323650886
  outer loop
    vertex 96.13021320904231 67.691 9.772649999999992
    vertex 96.9772 2.540000000000004 11.817456997880896
    vertex 96.9772 67.691 11.817456997880893
  endloop
endfacet
facet normal 0.3826834409693886 4.6955231020978276e-17 0.9238795289472694
  outer loop
    vertex 60.6848361670448 2.5400000000000027 3.9440191241327356
    vertex 57.84849989882476 67.691 5.118868104827779
    vertex 57.84849989882476 2.5400000000000027 5.118868104827783
  endloop
endfacet
facet normal 0.3826834409693886 4.6955231020978276e-17 0.9238795289472694
  outer loop
    vertex 57.84849989882476 67.691 5.118868104827779
    vertex 60.6848361670448 2.5400000000000027 3.9440191241327356
    vertex 60.6848361670448 67.691 3.944019124132732
  endloop
endfacet
facet normal 0.13052619222005113 5.1256409723407345e-17 0.9914448613738105
  outer loop
    vertex 86.55049999999999 2.5400000000000027 4.2417999999999925
    vertex 83.68752136878943 67.691 4.618718287338201
    vertex 83.68752136878943 2.5400000000000027 4.618718287338204
  endloop
endfacet
facet normal 0.13052619222005113 5.1256409723407345e-17 0.9914448613738105
  outer loop
    vertex 83.68752136878943 67.691 4.618718287338201
    vertex 86.55049999999999 2.5400000000000027 4.2417999999999925
    vertex 86.55049999999999 67.691 4.241799999999989
  endloop
endfacet
facet normal 2.8003211030902967e-32 5.210625539795702e-17 1.0
  outer loop
    vertex 98.28899504371093 2.5400000000000036 11.817456997880896
    vertex 96.9772 67.691 11.817456997880893
    vertex 96.9772 2.540000000000004 11.817456997880896
  endloop
endfacet
facet normal 2.8003211030902967e-32 5.210625539795702e-17 1.0
  outer loop
    vertex 96.9772 67.691 11.817456997880893
    vertex 98.28899504371093 2.5400000000000036 11.817456997880896
    vertex 98.28899504371093 67.691 11.817456997880893
  endloop
endfacet
facet normal 0.7933533402912365 2.926429758119458e-17 0.608761429008719
  outer loop
    vertex 100.68470844399688 67.691 7.8858084439968925
    vertex 99.01762030922049 2.5400000000000027 10.058400000000017
    vertex 100.68470844399688 2.5400000000000027 7.885808443996895
  endloop
endfacet
facet normal 0.7933533402912365 2.926429758119458e-17 0.608761429008719
  outer loop
    vertex 99.01762030922049 2.5400000000000027 10.058400000000017
    vertex 100.68470844399688 67.691 7.8858084439968925
    vertex 99.01762030922049 67.691 10.058400000000015
  endloop
endfacet
facet normal 0.923879532511287 1.708015031189465e-17 0.3826834323650897
  outer loop
    vertex 99.01762030922049 67.691 10.058400000000015
    vertex 98.28899504371093 2.5400000000000036 11.817456997880896
    vertex 99.01762030922049 2.5400000000000027 10.058400000000017
  endloop
endfacet
facet normal 0.923879532511287 1.708015031189465e-17 0.3826834323650897
  outer loop
    vertex 98.28899504371093 2.5400000000000036 11.817456997880896
    vertex 99.01762030922049 67.691 10.058400000000015
    vertex 98.28899504371093 67.691 11.817456997880893
  endloop
endfacet
facet normal -0.13052618544878175 5.2064548621552937e-17 0.9914448622652651
  outer loop
    vertex 66.77236366368571 2.5400000000000027 3.9440190787771234
    vertex 63.728599912379664 67.691 3.5432999999999923
    vertex 63.728599912379664 2.5400000000000027 3.543299999999996
  endloop
endfacet
facet normal -0.13052618544878175 5.2064548621552937e-17 0.9914448622652651
  outer loop
    vertex 63.728599912379664 67.691 3.5432999999999923
    vertex 66.77236366368571 2.5400000000000027 3.9440190787771234
    vertex 66.77236366368571 67.691 3.94401907877712
  endloop
endfacet
facet normal 0.13052619222005069 5.125640972340735e-17 0.9914448613738105
  outer loop
    vertex 40.0177 2.5400000000000027 3.352799999999997
    vertex 36.924631237693305 67.691 3.7600102277672223
    vertex 36.924631237693305 2.5400000000000027 3.760010227767226
  endloop
endfacet
facet normal 0.13052619222005069 5.125640972340735e-17 0.9914448613738105
  outer loop
    vertex 36.924631237693305 67.691 3.7600102277672223
    vertex 40.0177 2.5400000000000027 3.352799999999997
    vertex 40.0177 67.691 3.3527999999999936
  endloop
endfacet
facet normal 0.13052619222005252 5.125640972340734e-17 0.9914448613738103
  outer loop
    vertex 108.1024 2.5400000000000027 4.813300000000012
    vertex 105.38733645306554 67.691 5.170744897062426
    vertex 105.38733645306554 2.5400000000000027 5.17074489706243
  endloop
endfacet
facet normal 0.13052619222005252 5.125640972340734e-17 0.9914448613738103
  outer loop
    vertex 105.38733645306554 67.691 5.170744897062426
    vertex 108.1024 2.5400000000000027 4.813300000000012
    vertex 108.1024 67.691 4.813300000000009
  endloop
endfacet
facet normal 0.3826834323650899 4.6955231233322166e-17 0.9238795325112866
  outer loop
    vertex 36.924631237693305 2.5400000000000027 3.760010227767226
    vertex 34.04235 67.691 4.9538902069933
    vertex 34.04235 2.5400000000000027 4.953890206993304
  endloop
endfacet
facet normal 0.3826834323650899 4.6955231233322166e-17 0.9238795325112866
  outer loop
    vertex 34.04235 67.691 4.9538902069933
    vertex 36.924631237693305 2.5400000000000027 3.760010227767226
    vertex 36.924631237693305 67.691 3.7600102277672223
  endloop
endfacet
facet normal 0.6087614373825553 3.945413097114464e-17 0.7933533338657659
  outer loop
    vertex 57.84849989882476 2.5400000000000027 5.118868104827783
    vertex 55.41288273895457 67.691 6.987782924825331
    vertex 55.41288273895457 2.5400000000000027 6.987782924825335
  endloop
endfacet
facet normal 0.6087614373825553 3.945413097114464e-17 0.7933533338657659
  outer loop
    vertex 55.41288273895457 67.691 6.987782924825331
    vertex 57.84849989882476 2.5400000000000027 5.118868104827783
    vertex 57.84849989882476 67.691 5.118868104827779
  endloop
endfacet
facet normal 0.7933533402912357 2.926429758119463e-17 0.60876142900872
  outer loop
    vertex 78.72869691854875 67.691 7.481696918548757
    vertex 76.97078679095766 2.5400000000000027 9.772649999999995
    vertex 78.72869691854875 2.5400000000000027 7.481696918548761
  endloop
endfacet
facet normal 0.7933533402912357 2.926429758119463e-17 0.60876142900872
  outer loop
    vertex 76.97078679095766 2.5400000000000027 9.772649999999995
    vertex 78.72869691854875 67.691 7.481696918548757
    vertex 76.97078679095766 67.691 9.772649999999992
  endloop
endfacet
facet normal 0.9238795375009112 1.7080149668775332e-17 0.38268342031907043
  outer loop
    vertex 53.5439679733973 67.691 9.42340012646902
    vertex 52.617331694778166 2.5400000000000036 11.660498080199076
    vertex 53.5439679733973 2.5400000000000027 9.423400126469021
  endloop
endfacet
facet normal 0.9238795375009112 1.7080149668775332e-17 0.38268342031907043
  outer loop
    vertex 52.617331694778166 2.5400000000000036 11.660498080199076
    vertex 53.5439679733973 67.691 9.42340012646902
    vertex 52.617331694778166 67.691 11.660498080199073
  endloop
endfacet
facet normal -0.608761425560671 4.322321233538783e-17 0.7933533429370166
  outer loop
    vertex 72.04431713713156 2.5400000000000027 6.987782800911503
    vertex 69.60869994941237 67.691 5.118868017207466
    vertex 69.60869994941237 2.5400000000000027 5.118868017207469
  endloop
endfacet
facet normal -0.608761425560671 4.322321233538783e-17 0.7933533429370166
  outer loop
    vertex 69.60869994941237 67.691 5.118868017207466
    vertex 72.04431713713156 2.5400000000000027 6.987782800911503
    vertex 72.04431713713156 67.691 6.987782800911499
  endloop
endfacet
facet normal -0.3826834323650897 4.932457452263431e-17 0.9238795325112868
  outer loop
    vertex 92.08134999999999 2.5400000000000027 5.723786790957669
    vertex 89.41347863121055 67.691 4.618718287338204
    vertex 89.41347863121055 2.5400000000000027 4.618718287338207
  endloop
endfacet
facet normal -0.3826834323650897 4.932457452263431e-17 0.9238795325112868
  outer loop
    vertex 89.41347863121055 67.691 4.618718287338204
    vertex 92.08134999999999 2.5400000000000027 5.723786790957669
    vertex 92.08134999999999 67.691 5.723786790957665
  endloop
endfacet
facet normal -0.1305261922200521 5.206454859606437e-17 0.9914448613738105
  outer loop
    vertex 89.41347863121055 2.5400000000000027 4.618718287338207
    vertex 86.55049999999999 67.691 4.241799999999989
    vertex 86.55049999999999 2.5400000000000027 4.2417999999999925
  endloop
endfacet
facet normal -0.1305261922200521 5.206454859606437e-17 0.9914448613738105
  outer loop
    vertex 86.55049999999999 67.691 4.241799999999989
    vertex 89.41347863121055 2.5400000000000027 4.618718287338207
    vertex 89.41347863121055 67.691 4.618718287338204
  endloop
endfacet
facet normal -0.6087614290087203 4.322321220820019e-17 0.7933533402912355
  outer loop
    vertex 94.37230308145122 2.5400000000000027 7.481696918548762
    vertex 92.08134999999999 67.691 5.723786790957665
    vertex 92.08134999999999 2.5400000000000027 5.723786790957669
  endloop
endfacet
facet normal -0.6087614290087203 4.322321220820019e-17 0.7933533402912355
  outer loop
    vertex 92.08134999999999 67.691 5.723786790957665
    vertex 94.37230308145122 2.5400000000000027 7.481696918548762
    vertex 94.37230308145122 67.691 7.481696918548759
  endloop
endfacet
facet normal 0.6087614290087215 3.945413133187458e-17 0.7933533402912344
  outer loop
    vertex 102.8573 2.5400000000000027 6.218720309220497
    vertex 100.68470844399688 67.691 7.8858084439968925
    vertex 100.68470844399688 2.5400000000000027 7.885808443996895
  endloop
endfacet
facet normal 0.6087614290087215 3.945413133187458e-17 0.7933533402912344
  outer loop
    vertex 100.68470844399688 67.691 7.8858084439968925
    vertex 102.8573 2.5400000000000027 6.218720309220497
    vertex 102.8573 67.691 6.218720309220493
  endloop
endfacet
facet normal -0.3826834323650899 4.9324574522634303e-17 0.9238795325112866
  outer loop
    vertex 21.685249999999993 2.5400000000000014 4.249984758797312
    vertex 18.606936882166018 67.691 2.974905716159467
    vertex 18.606936882166018 2.540000000000001 2.97490571615947
  endloop
endfacet
facet normal -0.3826834323650899 4.9324574522634303e-17 0.9238795325112866
  outer loop
    vertex 18.606936882166018 67.691 2.974905716159467
    vertex 21.685249999999993 2.5400000000000014 4.249984758797312
    vertex 21.685249999999993 67.691 4.249984758797308
  endloop
endfacet
facet normal 0.6087614290087203 3.945413133187464e-17 0.7933533402912355
  outer loop
    vertex 81.01964999999998 2.5400000000000027 5.723786790957668
    vertex 78.72869691854875 67.691 7.481696918548757
    vertex 78.72869691854875 2.5400000000000027 7.481696918548761
  endloop
endfacet
facet normal 0.6087614290087203 3.945413133187464e-17 0.7933533402912355
  outer loop
    vertex 78.72869691854875 67.691 7.481696918548757
    vertex 81.01964999999998 2.5400000000000027 5.723786790957668
    vertex 81.01964999999998 67.691 5.723786790957664
  endloop
endfacet
facet normal -0.9238795325112878 2.280025101486959e-17 0.3826834323650875
  outer loop
    vertex 27.432 2.540000000000004 11.516992784032869
    vertex 26.35701524120268 67.691 8.92174999999999
    vertex 26.35701524120268 2.5400000000000023 8.921749999999994
  endloop
endfacet
facet normal -0.9238795325112878 2.280025101486959e-17 0.3826834323650875
  outer loop
    vertex 26.35701524120268 67.691 8.92174999999999
    vertex 27.432 2.540000000000004 11.516992784032869
    vertex 27.432 67.691 11.516992784032865
  endloop
endfacet
facet normal -0.7933533384013913 3.4176259533994413e-17 0.6087614314716131
  outer loop
    vertex 73.91323193898235 67.691 9.42339997470619
    vertex 72.04431713713156 2.5400000000000027 6.987782800911503
    vertex 73.91323193898235 2.5400000000000027 9.423399974706191
  endloop
endfacet
facet normal -0.7933533384013913 3.4176259533994413e-17 0.6087614314716131
  outer loop
    vertex 72.04431713713156 2.5400000000000027 6.987782800911503
    vertex 73.91323193898235 67.691 9.42339997470619
    vertex 72.04431713713156 67.691 6.987782800911499
  endloop
endfacet
facet normal -0.9238795317984839 2.2800251102330582e-17 0.38268343408594846
  outer loop
    vertex 74.85379999999999 2.540000000000004 11.69413213198695
    vertex 73.91323193898235 67.691 9.42339997470619
    vertex 73.91323193898235 2.5400000000000027 9.423399974706191
  endloop
endfacet
facet normal -0.9238795317984839 2.2800251102330582e-17 0.38268343408594846
  outer loop
    vertex 73.91323193898235 67.691 9.42339997470619
    vertex 74.85379999999999 2.540000000000004 11.69413213198695
    vertex 74.85379999999999 67.691 11.694132131986946
  endloop
endfacet
facet normal 0.3826834323650886 4.6955231233322203e-17 0.9238795325112873
  outer loop
    vertex 105.38733645306554 2.5400000000000027 5.17074489706243
    vertex 102.8573 67.691 6.218720309220493
    vertex 102.8573 2.5400000000000027 6.218720309220497
  endloop
endfacet
facet normal 0.3826834323650886 4.6955231233322203e-17 0.9238795325112873
  outer loop
    vertex 102.8573 67.691 6.218720309220493
    vertex 105.38733645306554 2.5400000000000027 5.17074489706243
    vertex 105.38733645306554 67.691 5.170744897062426
  endloop
endfacet
facet normal 0.1305261922200523 5.125640972340734e-17 0.9914448613738104
  outer loop
    vertex 15.303499999999994 2.540000000000001 2.5399999999999965
    vertex 12.000063117833971 67.691 2.9749057161594727
    vertex 12.000063117833971 2.5400000000000005 2.974905716159476
  endloop
endfacet
facet normal 0.1305261922200523 5.125640972340734e-17 0.9914448613738104
  outer loop
    vertex 12.000063117833971 67.691 2.9749057161594727
    vertex 15.303499999999994 2.540000000000001 2.5399999999999965
    vertex 15.303499999999994 67.691 2.5399999999999934
  endloop
endfacet
facet normal -0.793353340291235 3.417625941151271e-17 0.608761429008721
  outer loop
    vertex 26.35701524120268 2.5400000000000023 8.921749999999994
    vertex 24.328657401674498 67.691 6.278342598325492
    vertex 24.328657401674498 2.540000000000002 6.278342598325494
  endloop
endfacet
facet normal -0.793353340291235 3.417625941151271e-17 0.608761429008721
  outer loop
    vertex 24.328657401674498 67.691 6.278342598325492
    vertex 26.35701524120268 2.5400000000000023 8.921749999999994
    vertex 26.35701524120268 67.691 8.92174999999999
  endloop
endfacet
facet normal -0.6087614290087214 4.322321220820015e-17 0.7933533402912346
  outer loop
    vertex 48.468121009926065 2.5400000000000027 6.853078990073926
    vertex 45.99305 67.691 4.953890206993305
    vertex 45.99305 2.5400000000000027 4.953890206993308
  endloop
endfacet
facet normal -0.6087614290087214 4.322321220820015e-17 0.7933533402912346
  outer loop
    vertex 45.99305 67.691 4.953890206993305
    vertex 48.468121009926065 2.5400000000000027 6.853078990073926
    vertex 48.468121009926065 67.691 6.853078990073922
  endloop
endfacet
facet normal -0.13052619222005246 5.2064548596064366e-17 0.9914448613738103
  outer loop
    vertex 43.1107687623067 2.5400000000000027 3.7600102277672316
    vertex 40.0177 67.691 3.3527999999999936
    vertex 40.0177 2.5400000000000027 3.352799999999997
  endloop
endfacet
facet normal -0.13052619222005246 5.2064548596064366e-17 0.9914448613738103
  outer loop
    vertex 40.0177 67.691 3.3527999999999936
    vertex 43.1107687623067 2.5400000000000027 3.7600102277672316
    vertex 43.1107687623067 67.691 3.760010227767228
  endloop
endfacet
facet normal -0.38268343236508956 4.9324574522634316e-17 0.9238795325112868
  outer loop
    vertex 45.99305 2.5400000000000027 4.953890206993308
    vertex 43.1107687623067 67.691 3.760010227767228
    vertex 43.1107687623067 2.5400000000000027 3.7600102277672316
  endloop
endfacet
facet normal -0.38268343236508956 4.9324574522634316e-17 0.9238795325112868
  outer loop
    vertex 43.1107687623067 67.691 3.760010227767228
    vertex 45.99305 2.5400000000000027 4.953890206993308
    vertex 45.99305 67.691 4.953890206993305
  endloop
endfacet
facet normal -0.38268342720251175 4.932457461807707e-17 0.9238795346496966
  outer loop
    vertex 69.60869994941237 2.5400000000000027 5.118868017207469
    vertex 66.77236366368571 67.691 3.94401907877712
    vertex 66.77236366368571 2.5400000000000027 3.9440190787771234
  endloop
endfacet
facet normal -0.38268342720251175 4.932457461807707e-17 0.9238795346496966
  outer loop
    vertex 66.77236366368571 67.691 3.94401907877712
    vertex 69.60869994941237 2.5400000000000027 5.118868017207469
    vertex 69.60869994941237 67.691 5.118868017207466
  endloop
endfacet
facet normal 0.3826834323650899 4.695523123332218e-17 0.9238795325112868
  outer loop
    vertex 12.000063117833971 2.5400000000000005 2.974905716159476
    vertex 8.921749999999998 67.691 4.249984758797312
    vertex 8.921749999999998 2.54 4.249984758797315
  endloop
endfacet
facet normal 0.3826834323650899 4.695523123332218e-17 0.9238795325112868
  outer loop
    vertex 8.921749999999998 67.691 4.249984758797312
    vertex 12.000063117833971 2.5400000000000005 2.974905716159476
    vertex 12.000063117833971 67.691 2.9749057161594727
  endloop
endfacet
facet normal -0.1305261922200507 5.206454859606438e-17 0.9914448613738106
  outer loop
    vertex 18.606936882166018 2.540000000000001 2.97490571615947
    vertex 15.303499999999994 67.691 2.5399999999999934
    vertex 15.303499999999994 2.540000000000001 2.5399999999999965
  endloop
endfacet
facet normal -0.1305261922200507 5.206454859606438e-17 0.9914448613738106
  outer loop
    vertex 15.303499999999994 67.691 2.5399999999999934
    vertex 18.606936882166018 2.540000000000001 2.97490571615947
    vertex 18.606936882166018 67.691 2.974905716159467
  endloop
endfacet
facet normal 2.7631500931146986e-32 5.210625539795702e-17 1.0
  outer loop
    vertex 28.761441839944414 2.5400000000000036 11.516992784032869
    vertex 27.432 67.691 11.516992784032865
    vertex 27.432 2.540000000000004 11.516992784032869
  endloop
endfacet
facet normal 2.7631500931146986e-32 5.210625539795702e-17 1.0
  outer loop
    vertex 27.432 67.691 11.516992784032865
    vertex 28.761441839944414 2.5400000000000036 11.516992784032869
    vertex 28.761441839944414 67.691 11.516992784032865
  endloop
endfacet
facet normal -0.130526192220051 5.206454859606437e-17 0.9914448613738105
  outer loop
    vertex 110.81746354693446 2.5400000000000027 5.170744897062425
    vertex 108.1024 67.691 4.813300000000009
    vertex 108.1024 2.5400000000000027 4.813300000000012
  endloop
endfacet
facet normal -0.130526192220051 5.206454859606437e-17 0.9914448613738105
  outer loop
    vertex 108.1024 67.691 4.813300000000009
    vertex 110.81746354693446 2.5400000000000027 5.170744897062425
    vertex 110.81746354693446 67.691 5.170744897062422
  endloop
endfacet
facet normal -0.6087614290087208 4.3223212208200176e-17 0.7933533402912353
  outer loop
    vertex 115.5200915560031 2.5400000000000027 7.885808443996884
    vertex 113.34749999999998 67.691 6.218720309220486
    vertex 113.34749999999998 2.5400000000000027 6.2187203092204895
  endloop
endfacet
facet normal -0.6087614290087208 4.3223212208200176e-17 0.7933533402912353
  outer loop
    vertex 113.34749999999998 67.691 6.218720309220486
    vertex 115.5200915560031 2.5400000000000027 7.885808443996884
    vertex 115.5200915560031 67.691 7.885808443996881
  endloop
endfacet
facet normal 1.275615810099431e-16 -1.0 -9.779740336448717e-16
  outer loop
    vertex 118.63811015870743 -8.318901123516297e-14 11.918359159247712
    vertex 0.0 -9.407871004706294e-14 0.0
    vertex 118.63811015870743 -6.396284060653125e-14 0.0
  endloop
endfacet
facet normal 1.275615810099431e-16 -1.0 -9.779740336448717e-16
  outer loop
    vertex 0.0 -9.407871004706294e-14 0.0
    vertex 118.63811015870743 -8.318901123516297e-14 11.918359159247712
    vertex 0.0 -9.407871004706294e-14 15.3035
  endloop
endfacet
facet normal 1.275615810099431e-16 -1.0 -9.779740336448717e-16
  outer loop
    vertex 0.0 -9.407871004706294e-14 15.3035
    vertex 118.63811015870743 -8.318901123516297e-14 11.918359159247712
    vertex 118.63811015870743 -9.385591656932071e-14 15.3035
  endloop
endfacet
facet normal -1.7148764889245284e-17 1.0 -2.977785016990134e-17
  outer loop
    vertex 12.000063117833971 2.5400000000000005 2.974905716159476
    vertex 18.606936882166018 2.540000000000001 2.97490571615947
    vertex 15.303499999999994 2.540000000000001 2.5399999999999965
  endloop
endfacet
facet normal -1.7148764889245284e-17 1.0 -2.977785016990134e-17
  outer loop
    vertex 18.606936882166018 2.540000000000001 2.97490571615947
    vertex 12.000063117833971 2.5400000000000005 2.974905716159476
    vertex 21.685249999999993 2.5400000000000014 4.249984758797312
  endloop
endfacet
facet normal -1.7148764889245284e-17 1.0 -2.977785016990134e-17
  outer loop
    vertex 21.685249999999993 2.5400000000000014 4.249984758797312
    vertex 12.000063117833971 2.5400000000000005 2.974905716159476
    vertex 8.921749999999998 2.54 4.249984758797315
  endloop
endfacet
facet normal -1.7148764889245284e-17 1.0 -2.977785016990134e-17
  outer loop
    vertex 21.685249999999993 2.5400000000000014 4.249984758797312
    vertex 8.921749999999998 2.54 4.249984758797315
    vertex 24.328657401674498 2.540000000000002 6.278342598325494
  endloop
endfacet
facet normal -1.7148764889245284e-17 1.0 -2.977785016990134e-17
  outer loop
    vertex 24.328657401674498 2.540000000000002 6.278342598325494
    vertex 8.921749999999998 2.54 4.249984758797315
    vertex 6.278342598325501 2.54 6.278342598325499
  endloop
endfacet
facet normal -1.7148764889245284e-17 1.0 -2.977785016990134e-17
  outer loop
    vertex 24.328657401674498 2.540000000000002 6.278342598325494
    vertex 6.278342598325501 2.54 6.278342598325499
    vertex 26.35701524120268 2.5400000000000023 8.921749999999994
  endloop
endfacet
facet normal -1.7148764889245284e-17 1.0 -2.977785016990134e-17
  outer loop
    vertex 26.35701524120268 2.5400000000000023 8.921749999999994
    vertex 6.278342598325501 2.54 6.278342598325499
    vertex 4.249984758797317 2.54 8.92175
  endloop
endfacet
facet normal -1.7148764889245284e-17 1.0 -2.977785016990134e-17
  outer loop
    vertex 26.35701524120268 2.5400000000000023 8.921749999999994
    vertex 4.249984758797317 2.54 8.92175
    vertex 27.432 2.540000000000004 11.516992784032869
  endloop
endfacet
facet normal -1.7148764889245284e-17 1.0 -2.977785016990134e-17
  outer loop
    vertex 27.432 2.540000000000004 11.516992784032869
    vertex 4.249984758797317 2.54 8.92175
    vertex 2.974905716159477 2.54 12.000063117833975
  endloop
endfacet
facet normal -1.7148764889245284e-17 1.0 -2.977785016990134e-17
  outer loop
    vertex 27.432 2.540000000000004 11.516992784032869
    vertex 2.974905716159477 2.54 12.000063117833975
    vertex 28.761441839944414 2.5400000000000036 11.516992784032869
  endloop
endfacet
facet normal -1.7148764889245284e-17 1.0 -2.977785016990134e-17
  outer loop
    vertex 28.761441839944414 2.5400000000000036 11.516992784032869
    vertex 2.974905716159477 2.54 12.000063117833975
    vertex 51.3334 2.540000000000004 11.660498080199076
  endloop
endfacet
facet normal -1.7148764889245284e-17 1.0 -2.977785016990134e-17
  outer loop
    vertex 51.3334 2.540000000000004 11.660498080199076
    vertex 2.974905716159477 2.54 12.000063117833975
    vertex 52.617331694778166 2.5400000000000036 11.660498080199076
  endloop
endfacet
facet normal -1.7148764889245284e-17 1.0 -2.977785016990134e-17
  outer loop
    vertex 52.617331694778166 2.5400000000000036 11.660498080199076
    vertex 2.974905716159477 2.54 12.000063117833975
    vertex 74.85379999999999 2.540000000000004 11.69413213198695
  endloop
endfacet
facet normal -1.7148764889245284e-17 1.0 -2.977785016990134e-17
  outer loop
    vertex 74.85379999999999 2.540000000000004 11.69413213198695
    vertex 2.974905716159477 2.54 12.000063117833975
    vertex 76.1748828320311 2.5400000000000036 11.69413213198695
  endloop
endfacet
facet normal -1.7148764889245284e-17 1.0 -2.977785016990134e-17
  outer loop
    vertex 76.1748828320311 2.5400000000000036 11.69413213198695
    vertex 2.974905716159477 2.54 12.000063117833975
    vertex 96.9772 2.540000000000004 11.817456997880896
  endloop
endfacet
facet normal -1.7148764889245284e-17 1.0 -2.977785016990134e-17
  outer loop
    vertex 96.9772 2.540000000000004 11.817456997880896
    vertex 2.974905716159477 2.54 12.000063117833975
    vertex 98.28899504371093 2.5400000000000036 11.817456997880896
  endloop
endfacet
facet normal -1.7148764889245284e-17 1.0 -2.977785016990134e-17
  outer loop
    vertex 98.28899504371093 2.5400000000000036 11.817456997880896
    vertex 2.974905716159477 2.54 12.000063117833975
    vertex 117.95759999999997 2.540000000000004 11.918359159247712
  endloop
endfacet
facet normal -1.7148764889245284e-17 1.0 -2.977785016990134e-17
  outer loop
    vertex 117.95759999999997 2.540000000000004 11.918359159247712
    vertex 2.974905716159477 2.54 12.000063117833975
    vertex 118.63811015870743 2.540000000000004 11.918359159247712
  endloop
endfacet
facet normal -1.7148764889245284e-17 1.0 -2.977785016990134e-17
  outer loop
    vertex 118.63811015870743 2.540000000000004 11.918359159247712
    vertex 2.974905716159477 2.54 12.000063117833975
    vertex 118.6381101587074 2.5400000000000005 15.303499999999998
  endloop
endfacet
facet normal -1.7148764889245284e-17 1.0 -2.977785016990134e-17
  outer loop
    vertex 118.6381101587074 2.5400000000000005 15.303499999999998
    vertex 2.974905716159477 2.54 12.000063117833975
    vertex 2.5400000000000023 2.54 15.303499999999998
  endloop
endfacet
facet normal -1.7148764889245284e-17 1.0 -2.977785016990134e-17
  outer loop
    vertex 105.38733645306554 2.5400000000000027 5.17074489706243
    vertex 110.81746354693446 2.5400000000000027 5.170744897062425
    vertex 108.1024 2.5400000000000027 4.813300000000012
  endloop
endfacet
facet normal -1.7148764889245284e-17 1.0 -2.977785016990134e-17
  outer loop
    vertex 110.81746354693446 2.5400000000000027 5.170744897062425
    vertex 105.38733645306554 2.5400000000000027 5.17074489706243
    vertex 113.34749999999998 2.5400000000000027 6.2187203092204895
  endloop
endfacet
facet normal -1.7148764889245284e-17 1.0 -2.977785016990134e-17
  outer loop
    vertex 113.34749999999998 2.5400000000000027 6.2187203092204895
    vertex 105.38733645306554 2.5400000000000027 5.17074489706243
    vertex 102.8573 2.5400000000000027 6.218720309220497
  endloop
endfacet
facet normal -1.7148764889245284e-17 1.0 -2.977785016990134e-17
  outer loop
    vertex 113.34749999999998 2.5400000000000027 6.2187203092204895
    vertex 102.8573 2.5400000000000027 6.218720309220497
    vertex 115.5200915560031 2.5400000000000027 7.885808443996884
  endloop
endfacet
facet normal -1.7148764889245284e-17 1.0 -2.977785016990134e-17
  outer loop
    vertex 115.5200915560031 2.5400000000000027 7.885808443996884
    vertex 102.8573 2.5400000000000027 6.218720309220497
    vertex 100.68470844399688 2.5400000000000027 7.885808443996895
  endloop
endfacet
facet normal -1.7148764889245284e-17 1.0 -2.977785016990134e-17
  outer loop
    vertex 115.5200915560031 2.5400000000000027 7.885808443996884
    vertex 100.68470844399688 2.5400000000000027 7.885808443996895
    vertex 117.18717969077952 2.5400000000000027 10.058400000000002
  endloop
endfacet
facet normal -1.7148764889245284e-17 1.0 -2.977785016990134e-17
  outer loop
    vertex 117.18717969077952 2.5400000000000027 10.058400000000002
    vertex 100.68470844399688 2.5400000000000027 7.885808443996895
    vertex 99.01762030922049 2.5400000000000027 10.058400000000017
  endloop
endfacet
facet normal -1.7148764889245284e-17 1.0 -2.977785016990134e-17
  outer loop
    vertex 117.18717969077952 2.5400000000000027 10.058400000000002
    vertex 99.01762030922049 2.5400000000000027 10.058400000000017
    vertex 117.95759999999997 2.540000000000004 11.918359159247712
  endloop
endfacet
facet normal -1.7148764889245284e-17 1.0 -2.977785016990134e-17
  outer loop
    vertex 117.95759999999997 2.540000000000004 11.918359159247712
    vertex 99.01762030922049 2.5400000000000027 10.058400000000017
    vertex 98.28899504371093 2.5400000000000036 11.817456997880896
  endloop
endfacet
facet normal -1.7148764889245284e-17 1.0 -2.977785016990134e-17
  outer loop
    vertex 83.68752136878943 2.5400000000000027 4.618718287338204
    vertex 89.41347863121055 2.5400000000000027 4.618718287338207
    vertex 86.55049999999999 2.5400000000000027 4.2417999999999925
  endloop
endfacet
facet normal -1.7148764889245284e-17 1.0 -2.977785016990134e-17
  outer loop
    vertex 89.41347863121055 2.5400000000000027 4.618718287338207
    vertex 83.68752136878943 2.5400000000000027 4.618718287338204
    vertex 81.01964999999998 2.5400000000000027 5.723786790957668
  endloop
endfacet
facet normal -1.7148764889245284e-17 1.0 -2.977785016990134e-17
  outer loop
    vertex 89.41347863121055 2.5400000000000027 4.618718287338207
    vertex 81.01964999999998 2.5400000000000027 5.723786790957668
    vertex 92.08134999999999 2.5400000000000027 5.723786790957669
  endloop
endfacet
facet normal -1.7148764889245284e-17 1.0 -2.977785016990134e-17
  outer loop
    vertex 92.08134999999999 2.5400000000000027 5.723786790957669
    vertex 81.01964999999998 2.5400000000000027 5.723786790957668
    vertex 78.72869691854875 2.5400000000000027 7.481696918548761
  endloop
endfacet
facet normal -1.7148764889245284e-17 1.0 -2.977785016990134e-17
  outer loop
    vertex 92.08134999999999 2.5400000000000027 5.723786790957669
    vertex 78.72869691854875 2.5400000000000027 7.481696918548761
    vertex 94.37230308145122 2.5400000000000027 7.481696918548762
  endloop
endfacet
facet normal -1.7148764889245284e-17 1.0 -2.977785016990134e-17
  outer loop
    vertex 94.37230308145122 2.5400000000000027 7.481696918548762
    vertex 78.72869691854875 2.5400000000000027 7.481696918548761
    vertex 76.97078679095766 2.5400000000000027 9.772649999999995
  endloop
endfacet
facet normal -1.7148764889245284e-17 1.0 -2.977785016990134e-17
  outer loop
    vertex 94.37230308145122 2.5400000000000027 7.481696918548762
    vertex 76.97078679095766 2.5400000000000027 9.772649999999995
    vertex 96.13021320904231 2.5400000000000027 9.772649999999995
  endloop
endfacet
facet normal -1.7148764889245284e-17 1.0 -2.977785016990134e-17
  outer loop
    vertex 96.13021320904231 2.5400000000000027 9.772649999999995
    vertex 76.97078679095766 2.5400000000000027 9.772649999999995
    vertex 76.1748828320311 2.5400000000000036 11.69413213198695
  endloop
endfacet
facet normal -1.7148764889245284e-17 1.0 -2.977785016990134e-17
  outer loop
    vertex 96.13021320904231 2.5400000000000027 9.772649999999995
    vertex 76.1748828320311 2.5400000000000036 11.69413213198695
    vertex 96.9772 2.540000000000004 11.817456997880896
  endloop
endfacet
facet normal -1.7148764889245284e-17 1.0 -2.977785016990134e-17
  outer loop
    vertex 60.6848361670448 2.5400000000000027 3.9440191241327356
    vertex 66.77236366368571 2.5400000000000027 3.9440190787771234
    vertex 63.728599912379664 2.5400000000000027 3.543299999999996
  endloop
endfacet
facet normal -1.7148764889245284e-17 1.0 -2.977785016990134e-17
  outer loop
    vertex 66.77236366368571 2.5400000000000027 3.9440190787771234
    vertex 60.6848361670448 2.5400000000000027 3.9440191241327356
    vertex 69.60869994941237 2.5400000000000027 5.118868017207469
  endloop
endfacet
facet normal -1.7148764889245284e-17 1.0 -2.977785016990134e-17
  outer loop
    vertex 69.60869994941237 2.5400000000000027 5.118868017207469
    vertex 60.6848361670448 2.5400000000000027 3.9440191241327356
    vertex 57.84849989882476 2.5400000000000027 5.118868104827783
  endloop
endfacet
facet normal -1.7148764889245284e-17 1.0 -2.977785016990134e-17
  outer loop
    vertex 69.60869994941237 2.5400000000000027 5.118868017207469
    vertex 57.84849989882476 2.5400000000000027 5.118868104827783
    vertex 72.04431713713156 2.5400000000000027 6.987782800911503
  endloop
endfacet
facet normal -1.7148764889245284e-17 1.0 -2.977785016990134e-17
  outer loop
    vertex 72.04431713713156 2.5400000000000027 6.987782800911503
    vertex 57.84849989882476 2.5400000000000027 5.118868104827783
    vertex 55.41288273895457 2.5400000000000027 6.987782924825335
  endloop
endfacet
facet normal -1.7148764889245284e-17 1.0 -2.977785016990134e-17
  outer loop
    vertex 72.04431713713156 2.5400000000000027 6.987782800911503
    vertex 55.41288273895457 2.5400000000000027 6.987782924825335
    vertex 73.91323193898235 2.5400000000000027 9.423399974706191
  endloop
endfacet
facet normal -1.7148764889245284e-17 1.0 -2.977785016990134e-17
  outer loop
    vertex 73.91323193898235 2.5400000000000027 9.423399974706191
    vertex 55.41288273895457 2.5400000000000027 6.987782924825335
    vertex 53.5439679733973 2.5400000000000027 9.423400126469021
  endloop
endfacet
facet normal -1.7148764889245284e-17 1.0 -2.977785016990134e-17
  outer loop
    vertex 73.91323193898235 2.5400000000000027 9.423399974706191
    vertex 53.5439679733973 2.5400000000000027 9.423400126469021
    vertex 74.85379999999999 2.540000000000004 11.69413213198695
  endloop
endfacet
facet normal -1.7148764889245284e-17 1.0 -2.977785016990134e-17
  outer loop
    vertex 74.85379999999999 2.540000000000004 11.69413213198695
    vertex 53.5439679733973 2.5400000000000027 9.423400126469021
    vertex 52.617331694778166 2.5400000000000036 11.660498080199076
  endloop
endfacet
facet normal -1.7148764889245284e-17 1.0 -2.977785016990134e-17
  outer loop
    vertex 36.924631237693305 2.5400000000000027 3.760010227767226
    vertex 43.1107687623067 2.5400000000000027 3.7600102277672316
    vertex 40.0177 2.5400000000000027 3.352799999999997
  endloop
endfacet
facet normal -1.7148764889245284e-17 1.0 -2.977785016990134e-17
  outer loop
    vertex 43.1107687623067 2.5400000000000027 3.7600102277672316
    vertex 36.924631237693305 2.5400000000000027 3.760010227767226
    vertex 34.04235 2.5400000000000027 4.953890206993304
  endloop
endfacet
facet normal -1.7148764889245284e-17 1.0 -2.977785016990134e-17
  outer loop
    vertex 43.1107687623067 2.5400000000000027 3.7600102277672316
    vertex 34.04235 2.5400000000000027 4.953890206993304
    vertex 45.99305 2.5400000000000027 4.953890206993308
  endloop
endfacet
facet normal -1.7148764889245284e-17 1.0 -2.977785016990134e-17
  outer loop
    vertex 45.99305 2.5400000000000027 4.953890206993308
    vertex 34.04235 2.5400000000000027 4.953890206993304
    vertex 31.567278990073927 2.5400000000000027 6.8530789900739215
  endloop
endfacet
facet normal -1.7148764889245284e-17 1.0 -2.977785016990134e-17
  outer loop
    vertex 45.99305 2.5400000000000027 4.953890206993308
    vertex 31.567278990073927 2.5400000000000027 6.8530789900739215
    vertex 48.468121009926065 2.5400000000000027 6.853078990073926
  endloop
endfacet
facet normal -1.7148764889245284e-17 1.0 -2.977785016990134e-17
  outer loop
    vertex 48.468121009926065 2.5400000000000027 6.853078990073926
    vertex 31.567278990073927 2.5400000000000027 6.8530789900739215
    vertex 29.66809020699331 2.5400000000000027 9.328149999999994
  endloop
endfacet
facet normal -1.7148764889245284e-17 1.0 -2.977785016990134e-17
  outer loop
    vertex 48.468121009926065 2.5400000000000027 6.853078990073926
    vertex 29.66809020699331 2.5400000000000027 9.328149999999994
    vertex 50.36730979300669 2.5400000000000027 9.328149999999999
  endloop
endfacet
facet normal -1.7148764889245284e-17 1.0 -2.977785016990134e-17
  outer loop
    vertex 50.36730979300669 2.5400000000000027 9.328149999999999
    vertex 29.66809020699331 2.5400000000000027 9.328149999999994
    vertex 28.761441839944414 2.5400000000000036 11.516992784032869
  endloop
endfacet
facet normal -1.7148764889245284e-17 1.0 -2.977785016990134e-17
  outer loop
    vertex 50.36730979300669 2.5400000000000027 9.328149999999999
    vertex 28.761441839944414 2.5400000000000036 11.516992784032869
    vertex 51.3334 2.540000000000004 11.660498080199076
  endloop
endfacet
facet normal 0.0 1.0 0.0
  outer loop
    vertex 0.0 70.231 15.303499999999994
    vertex 118.63811015870743 70.231 -2.8806822366977637e-15
    vertex 9.887808424911854e-17 70.231 -3.0742830918123947e-15
  endloop
endfacet
facet normal 0.0 1.0 0.0
  outer loop
    vertex 118.63811015870743 70.231 -2.8806822366977637e-15
    vertex 0.0 70.231 15.303499999999994
    vertex 118.63811015870743 70.231 11.918359159247712
  endloop
endfacet
facet normal 0.0 1.0 0.0
  outer loop
    vertex 118.63811015870743 70.231 11.918359159247712
    vertex 0.0 70.231 15.303499999999994
    vertex 118.63811015870743 70.231 15.303499999999994
  endloop
endfacet
facet normal -1.4658474387519785e-15 3.2342909765865947e-17 1.0
  outer loop
    vertex 118.63811015870743 2.540000000000004 11.918359159247712
    vertex 117.95759999999997 67.691 11.918359159247709
    vertex 117.95759999999997 2.540000000000004 11.918359159247712
  endloop
endfacet
facet normal -1.4658474387519785e-15 3.2342909765865947e-17 1.0
  outer loop
    vertex 117.95759999999997 67.691 11.918359159247709
    vertex 118.63811015870743 2.540000000000004 11.918359159247712
    vertex 118.63811015870743 67.691 11.91835915924771
  endloop
endfacet
facet normal -1.4658474387519785e-15 3.2342909765865947e-17 1.0
  outer loop
    vertex 118.63811015870743 67.691 11.91835915924771
    vertex 118.63811015870743 2.540000000000004 11.918359159247712
    vertex 118.63811015870743 39.8172411361473 11.918359159247712
  endloop
endfacet
facet normal 1.2996181265692368e-19 6.440151959556575e-17 1.0
  outer loop
    vertex 0.0 -9.407871004706294e-14 15.3035
    vertex 2.5400000000000023 2.54 15.303499999999998
    vertex 0.0 70.231 15.303499999999994
  endloop
endfacet
facet normal 1.2996181265692368e-19 6.440151959556575e-17 1.0
  outer loop
    vertex 2.5400000000000023 2.54 15.303499999999998
    vertex 0.0 -9.407871004706294e-14 15.3035
    vertex 118.63811015870743 -9.385591656932071e-14 15.3035
  endloop
endfacet
facet normal 1.2996181265692368e-19 6.440151959556575e-17 1.0
  outer loop
    vertex 2.5400000000000023 2.54 15.303499999999998
    vertex 118.63811015870743 -9.385591656932071e-14 15.3035
    vertex 118.6381101587074 2.5400000000000005 15.303499999999998
  endloop
endfacet
facet normal 1.2996181265692368e-19 6.440151959556575e-17 1.0
  outer loop
    vertex 0.0 70.231 15.303499999999994
    vertex 2.5400000000000023 67.691 15.303499999999994
    vertex 118.63811015870743 70.231 15.303499999999994
  endloop
endfacet
facet normal 1.2996181265692368e-19 6.440151959556575e-17 1.0
  outer loop
    vertex 2.5400000000000023 67.691 15.303499999999994
    vertex 0.0 70.231 15.303499999999994
    vertex 2.5400000000000023 2.54 15.303499999999998
  endloop
endfacet
facet normal 1.2996181265692368e-19 6.440151959556575e-17 1.0
  outer loop
    vertex 118.63811015870743 70.231 15.303499999999994
    vertex 2.5400000000000023 67.691 15.303499999999994
    vertex 118.63811015870743 67.691 15.303499999999994
  endloop
endfacet
facet normal -0.3826834323650907 4.9324574522634303e-17 0.9238795325112865
  outer loop
    vertex 113.34749999999998 2.5400000000000027 6.2187203092204895
    vertex 110.81746354693446 67.691 5.170744897062422
    vertex 110.81746354693446 2.5400000000000027 5.170744897062425
  endloop
endfacet
facet normal -0.3826834323650907 4.9324574522634303e-17 0.9238795325112865
  outer loop
    vertex 110.81746354693446 67.691 5.170744897062422
    vertex 113.34749999999998 2.5400000000000027 6.2187203092204895
    vertex 113.34749999999998 67.691 6.218720309220486
  endloop
endfacet
facet normal 0.0 -1.0 0.0
  outer loop
    vertex 43.1107687623067 67.691 3.760010227767228
    vertex 36.924631237693305 67.691 3.7600102277672223
    vertex 40.0177 67.691 3.3527999999999936
  endloop
endfacet
facet normal 0.0 -1.0 0.0
  outer loop
    vertex 36.924631237693305 67.691 3.7600102277672223
    vertex 43.1107687623067 67.691 3.760010227767228
    vertex 34.04235 67.691 4.9538902069933
  endloop
endfacet
facet normal 0.0 -1.0 0.0
  outer loop
    vertex 34.04235 67.691 4.9538902069933
    vertex 43.1107687623067 67.691 3.760010227767228
    vertex 45.99305 67.691 4.953890206993305
  endloop
endfacet
facet normal 0.0 -1.0 0.0
  outer loop
    vertex 34.04235 67.691 4.9538902069933
    vertex 45.99305 67.691 4.953890206993305
    vertex 31.567278990073927 67.691 6.853078990073919
  endloop
endfacet
facet normal 0.0 -1.0 0.0
  outer loop
    vertex 31.567278990073927 67.691 6.853078990073919
    vertex 45.99305 67.691 4.953890206993305
    vertex 48.468121009926065 67.691 6.853078990073922
  endloop
endfacet
facet normal 0.0 -1.0 0.0
  outer loop
    vertex 31.567278990073927 67.691 6.853078990073919
    vertex 48.468121009926065 67.691 6.853078990073922
    vertex 29.66809020699331 67.691 9.328149999999992
  endloop
endfacet
facet normal 0.0 -1.0 0.0
  outer loop
    vertex 29.66809020699331 67.691 9.328149999999992
    vertex 48.468121009926065 67.691 6.853078990073922
    vertex 50.36730979300669 67.691 9.328149999999996
  endloop
endfacet
facet normal 0.0 -1.0 0.0
  outer loop
    vertex 29.66809020699331 67.691 9.328149999999992
    vertex 50.36730979300669 67.691 9.328149999999996
    vertex 28.761441839944414 67.691 11.516992784032865
  endloop
endfacet
facet normal 0.0 -1.0 0.0
  outer loop
    vertex 28.761441839944414 67.691 11.516992784032865
    vertex 50.36730979300669 67.691 9.328149999999996
    vertex 51.3334 67.691 11.660498080199073
  endloop
endfacet
facet normal 0.0 -1.0 0.0
  outer loop
    vertex 28.761441839944414 67.691 11.516992784032865
    vertex 51.3334 67.691 11.660498080199073
    vertex 27.432 67.691 11.516992784032865
  endloop
endfacet
facet normal 0.0 -1.0 0.0
  outer loop
    vertex 66.77236366368571 67.691 3.94401907877712
    vertex 60.6848361670448 67.691 3.944019124132732
    vertex 63.728599912379664 67.691 3.5432999999999923
  endloop
endfacet
facet normal 0.0 -1.0 0.0
  outer loop
    vertex 60.6848361670448 67.691 3.944019124132732
    vertex 66.77236366368571 67.691 3.94401907877712
    vertex 69.60869994941237 67.691 5.118868017207466
  endloop
endfacet
facet normal 0.0 -1.0 0.0
  outer loop
    vertex 60.6848361670448 67.691 3.944019124132732
    vertex 69.60869994941237 67.691 5.118868017207466
    vertex 57.84849989882476 67.691 5.118868104827779
  endloop
endfacet
facet normal 0.0 -1.0 0.0
  outer loop
    vertex 57.84849989882476 67.691 5.118868104827779
    vertex 69.60869994941237 67.691 5.118868017207466
    vertex 72.04431713713156 67.691 6.987782800911499
  endloop
endfacet
facet normal 0.0 -1.0 0.0
  outer loop
    vertex 57.84849989882476 67.691 5.118868104827779
    vertex 72.04431713713156 67.691 6.987782800911499
    vertex 55.41288273895457 67.691 6.987782924825331
  endloop
endfacet
facet normal 0.0 -1.0 0.0
  outer loop
    vertex 55.41288273895457 67.691 6.987782924825331
    vertex 72.04431713713156 67.691 6.987782800911499
    vertex 73.91323193898235 67.691 9.42339997470619
  endloop
endfacet
facet normal 0.0 -1.0 0.0
  outer loop
    vertex 55.41288273895457 67.691 6.987782924825331
    vertex 73.91323193898235 67.691 9.42339997470619
    vertex 53.5439679733973 67.691 9.42340012646902
  endloop
endfacet
facet normal 0.0 -1.0 0.0
  outer loop
    vertex 53.5439679733973 67.691 9.42340012646902
    vertex 73.91323193898235 67.691 9.42339997470619
    vertex 74.85379999999999 67.691 11.694132131986946
  endloop
endfacet
facet normal 0.0 -1.0 0.0
  outer loop
    vertex 53.5439679733973 67.691 9.42340012646902
    vertex 74.85379999999999 67.691 11.694132131986946
    vertex 52.617331694778166 67.691 11.660498080199073
  endloop
endfacet
facet normal 0.0 -1.0 0.0
  outer loop
    vertex 52.617331694778166 67.691 11.660498080199073
    vertex 74.85379999999999 67.691 11.694132131986946
    vertex 51.3334 67.691 11.660498080199073
  endloop
endfacet
facet normal 0.0 -1.0 0.0
  outer loop
    vertex 89.41347863121055 67.691 4.618718287338204
    vertex 83.68752136878943 67.691 4.618718287338201
    vertex 86.55049999999999 67.691 4.241799999999989
  endloop
endfacet
facet normal 0.0 -1.0 0.0
  outer loop
    vertex 83.68752136878943 67.691 4.618718287338201
    vertex 89.41347863121055 67.691 4.618718287338204
    vertex 81.01964999999998 67.691 5.723786790957664
  endloop
endfacet
facet normal 0.0 -1.0 0.0
  outer loop
    vertex 81.01964999999998 67.691 5.723786790957664
    vertex 89.41347863121055 67.691 4.618718287338204
    vertex 92.08134999999999 67.691 5.723786790957665
  endloop
endfacet
facet normal 0.0 -1.0 0.0
  outer loop
    vertex 81.01964999999998 67.691 5.723786790957664
    vertex 92.08134999999999 67.691 5.723786790957665
    vertex 78.72869691854875 67.691 7.481696918548757
  endloop
endfacet
facet normal 0.0 -1.0 0.0
  outer loop
    vertex 78.72869691854875 67.691 7.481696918548757
    vertex 92.08134999999999 67.691 5.723786790957665
    vertex 94.37230308145122 67.691 7.481696918548759
  endloop
endfacet
facet normal 0.0 -1.0 0.0
  outer loop
    vertex 78.72869691854875 67.691 7.481696918548757
    vertex 94.37230308145122 67.691 7.481696918548759
    vertex 76.97078679095766 67.691 9.772649999999992
  endloop
endfacet
facet normal 0.0 -1.0 0.0
  outer loop
    vertex 76.97078679095766 67.691 9.772649999999992
    vertex 94.37230308145122 67.691 7.481696918548759
    vertex 96.13021320904231 67.691 9.772649999999992
  endloop
endfacet
facet normal 0.0 -1.0 0.0
  outer loop
    vertex 76.97078679095766 67.691 9.772649999999992
    vertex 96.13021320904231 67.691 9.772649999999992
    vertex 96.9772 67.691 11.817456997880893
  endloop
endfacet
facet normal 0.0 -1.0 0.0
  outer loop
    vertex 76.97078679095766 67.691 9.772649999999992
    vertex 96.9772 67.691 11.817456997880893
    vertex 76.1748828320311 67.691 11.694132131986946
  endloop
endfacet
facet normal 0.0 -1.0 0.0
  outer loop
    vertex 76.1748828320311 67.691 11.694132131986946
    vertex 96.9772 67.691 11.817456997880893
    vertex 74.85379999999999 67.691 11.694132131986946
  endloop
endfacet
facet normal 0.0 -1.0 0.0
  outer loop
    vertex 110.81746354693446 67.691 5.170744897062422
    vertex 105.38733645306554 67.691 5.170744897062426
    vertex 108.1024 67.691 4.813300000000009
  endloop
endfacet
facet normal 0.0 -1.0 0.0
  outer loop
    vertex 105.38733645306554 67.691 5.170744897062426
    vertex 110.81746354693446 67.691 5.170744897062422
    vertex 113.34749999999998 67.691 6.218720309220486
  endloop
endfacet
facet normal 0.0 -1.0 0.0
  outer loop
    vertex 105.38733645306554 67.691 5.170744897062426
    vertex 113.34749999999998 67.691 6.218720309220486
    vertex 102.8573 67.691 6.218720309220493
  endloop
endfacet
facet normal 0.0 -1.0 0.0
  outer loop
    vertex 102.8573 67.691 6.218720309220493
    vertex 113.34749999999998 67.691 6.218720309220486
    vertex 115.5200915560031 67.691 7.885808443996881
  endloop
endfacet
facet normal 0.0 -1.0 0.0
  outer loop
    vertex 102.8573 67.691 6.218720309220493
    vertex 115.5200915560031 67.691 7.885808443996881
    vertex 100.68470844399688 67.691 7.8858084439968925
  endloop
endfacet
facet normal 0.0 -1.0 0.0
  outer loop
    vertex 100.68470844399688 67.691 7.8858084439968925
    vertex 115.5200915560031 67.691 7.885808443996881
    vertex 117.18717969077952 67.691 10.0584
  endloop
endfacet
facet normal 0.0 -1.0 0.0
  outer loop
    vertex 100.68470844399688 67.691 7.8858084439968925
    vertex 117.18717969077952 67.691 10.0584
    vertex 99.01762030922049 67.691 10.058400000000015
  endloop
endfacet
facet normal 0.0 -1.0 0.0
  outer loop
    vertex 99.01762030922049 67.691 10.058400000000015
    vertex 117.18717969077952 67.691 10.0584
    vertex 117.95759999999997 67.691 11.918359159247709
  endloop
endfacet
facet normal 0.0 -1.0 0.0
  outer loop
    vertex 99.01762030922049 67.691 10.058400000000015
    vertex 117.95759999999997 67.691 11.918359159247709
    vertex 98.28899504371093 67.691 11.817456997880893
  endloop
endfacet
facet normal 0.0 -1.0 0.0
  outer loop
    vertex 98.28899504371093 67.691 11.817456997880893
    vertex 117.95759999999997 67.691 11.918359159247709
    vertex 96.9772 67.691 11.817456997880893
  endloop
endfacet
facet normal 0.0 -1.0 0.0
  outer loop
    vertex 18.606936882166018 67.691 2.974905716159467
    vertex 12.000063117833971 67.691 2.9749057161594727
    vertex 15.303499999999994 67.691 2.5399999999999934
  endloop
endfacet
facet normal 0.0 -1.0 0.0
  outer loop
    vertex 12.000063117833971 67.691 2.9749057161594727
    vertex 18.606936882166018 67.691 2.974905716159467
    vertex 21.685249999999993 67.691 4.249984758797308
  endloop
endfacet
facet normal 0.0 -1.0 0.0
  outer loop
    vertex 12.000063117833971 67.691 2.9749057161594727
    vertex 21.685249999999993 67.691 4.249984758797308
    vertex 8.921749999999998 67.691 4.249984758797312
  endloop
endfacet
facet normal 0.0 -1.0 0.0
  outer loop
    vertex 8.921749999999998 67.691 4.249984758797312
    vertex 21.685249999999993 67.691 4.249984758797308
    vertex 24.328657401674498 67.691 6.278342598325492
  endloop
endfacet
facet normal 0.0 -1.0 0.0
  outer loop
    vertex 8.921749999999998 67.691 4.249984758797312
    vertex 24.328657401674498 67.691 6.278342598325492
    vertex 6.278342598325501 67.691 6.278342598325495
  endloop
endfacet
facet normal 0.0 -1.0 0.0
  outer loop
    vertex 6.278342598325501 67.691 6.278342598325495
    vertex 24.328657401674498 67.691 6.278342598325492
    vertex 26.35701524120268 67.691 8.92174999999999
  endloop
endfacet
facet normal 0.0 -1.0 0.0
  outer loop
    vertex 6.278342598325501 67.691 6.278342598325495
    vertex 26.35701524120268 67.691 8.92174999999999
    vertex 4.249984758797317 67.691 8.921749999999998
  endloop
endfacet
facet normal 0.0 -1.0 0.0
  outer loop
    vertex 4.249984758797317 67.691 8.921749999999998
    vertex 26.35701524120268 67.691 8.92174999999999
    vertex 27.432 67.691 11.516992784032865
  endloop
endfacet
facet normal 0.0 -1.0 0.0
  outer loop
    vertex 4.249984758797317 67.691 8.921749999999998
    vertex 27.432 67.691 11.516992784032865
    vertex 2.9749057161594776 67.691 12.000063117833971
  endloop
endfacet
facet normal 0.0 -1.0 0.0
  outer loop
    vertex 2.9749057161594776 67.691 12.000063117833971
    vertex 27.432 67.691 11.516992784032865
    vertex 51.3334 67.691 11.660498080199073
  endloop
endfacet
facet normal 0.0 -1.0 0.0
  outer loop
    vertex 2.9749057161594776 67.691 12.000063117833971
    vertex 51.3334 67.691 11.660498080199073
    vertex 74.85379999999999 67.691 11.694132131986946
  endloop
endfacet
facet normal 0.0 -1.0 0.0
  outer loop
    vertex 2.9749057161594776 67.691 12.000063117833971
    vertex 74.85379999999999 67.691 11.694132131986946
    vertex 96.9772 67.691 11.817456997880893
  endloop
endfacet
facet normal 0.0 -1.0 0.0
  outer loop
    vertex 2.9749057161594776 67.691 12.000063117833971
    vertex 96.9772 67.691 11.817456997880893
    vertex 117.95759999999997 67.691 11.918359159247709
  endloop
endfacet
facet normal 0.0 -1.0 0.0
  outer loop
    vertex 2.9749057161594776 67.691 12.000063117833971
    vertex 117.95759999999997 67.691 11.918359159247709
    vertex 118.63811015870743 67.691 11.91835915924771
  endloop
endfacet
facet normal 0.0 -1.0 0.0
  outer loop
    vertex 2.9749057161594776 67.691 12.000063117833971
    vertex 118.63811015870743 67.691 11.91835915924771
    vertex 118.63811015870743 67.691 15.303499999999994
  endloop
endfacet
facet normal 0.0 -1.0 0.0
  outer loop
    vertex 2.9749057161594776 67.691 12.000063117833971
    vertex 118.63811015870743 67.691 15.303499999999994
    vertex 2.5400000000000023 67.691 15.303499999999994
  endloop
endfacet
facet normal -0.9238795325112862 2.2800251014869767e-17 0.382683432365091
  outer loop
    vertex 117.95759999999997 2.540000000000004 11.918359159247712
    vertex 117.18717969077952 67.691 10.0584
    vertex 117.18717969077952 2.5400000000000027 10.058400000000002
  endloop
endfacet
facet normal -0.9238795325112862 2.2800251014869767e-17 0.382683432365091
  outer loop
    vertex 117.18717969077952 67.691 10.0584
    vertex 117.95759999999997 2.540000000000004 11.918359159247712
    vertex 117.95759999999997 67.691 11.918359159247709
  endloop
endfacet
facet normal -0.7933533402912322 3.4176259411512886e-17 0.6087614290087247
  outer loop
    vertex 117.18717969077952 67.691 10.0584
    vertex 115.5200915560031 2.5400000000000027 7.885808443996884
    vertex 117.18717969077952 2.5400000000000027 10.058400000000002
  endloop
endfacet
facet normal -0.7933533402912322 3.4176259411512886e-17 0.6087614290087247
  outer loop
    vertex 115.5200915560031 2.5400000000000027 7.885808443996884
    vertex 117.18717969077952 67.691 10.0584
    vertex 115.5200915560031 67.691 7.885808443996881
  endloop
endfacet
facet normal 1.0 -6.521644699508239e-17 3.053753390158027e-16
  outer loop
    vertex 118.63811015870743 -8.318901123516297e-14 11.918359159247712
    vertex 118.6381101587074 2.5400000000000005 15.303499999999998
    vertex 118.63811015870743 -9.385591656932071e-14 15.3035
  endloop
endfacet
facet normal 1.0 -6.521644699508239e-17 3.053753390158027e-16
  outer loop
    vertex 118.6381101587074 2.5400000000000005 15.303499999999998
    vertex 118.63811015870743 -8.318901123516297e-14 11.918359159247712
    vertex 118.63811015870743 -6.396284060653125e-14 0.0
  endloop
endfacet
facet normal 1.0 -6.521644699508239e-17 3.053753390158027e-16
  outer loop
    vertex 118.6381101587074 2.5400000000000005 15.303499999999998
    vertex 118.63811015870743 -6.396284060653125e-14 0.0
    vertex 118.63811015870743 2.540000000000004 11.918359159247712
  endloop
endfacet
facet normal 1.0 -6.521644699508239e-17 3.053753390158027e-16
  outer loop
    vertex 118.63811015870743 2.540000000000004 11.918359159247712
    vertex 118.63811015870743 -6.396284060653125e-14 0.0
    vertex 118.63811015870743 70.231 -2.8806822366977637e-15
  endloop
endfacet
facet normal 1.0 -6.521644699508239e-17 3.053753390158027e-16
  outer loop
    vertex 118.63811015870743 2.540000000000004 11.918359159247712
    vertex 118.63811015870743 70.231 -2.8806822366977637e-15
    vertex 118.63811015870743 39.8172411361473 11.918359159247712
  endloop
endfacet
facet normal 1.0 -6.521644699508239e-17 3.053753390158027e-16
  outer loop
    vertex 118.63811015870743 39.8172411361473 11.918359159247712
    vertex 118.63811015870743 70.231 -2.8806822366977637e-15
    vertex 118.63811015870743 67.691 11.91835915924771
  endloop
endfacet
facet normal 1.0 -6.521644699508239e-17 3.053753390158027e-16
  outer loop
    vertex 118.63811015870743 67.691 11.91835915924771
    vertex 118.63811015870743 70.231 -2.8806822366977637e-15
    vertex 118.63811015870743 67.691 15.303499999999994
  endloop
endfacet
facet normal 1.0 -6.521644699508239e-17 3.053753390158027e-16
  outer loop
    vertex 118.63811015870743 67.691 15.303499999999994
    vertex 118.63811015870743 70.231 -2.8806822366977637e-15
    vertex 118.63811015870743 70.231 15.303499999999994
  endloop
endfacet
facet normal 1.0 -6.521644699508239e-17 3.053753390158027e-16
  outer loop
    vertex 118.63811015870743 70.231 15.303499999999994
    vertex 118.63811015870743 70.231 -2.8806822366977637e-15
    vertex 118.63811015870743 70.231 11.918359159247712
  endloop
endfacet
endsolid Metric Long 375 12pt - part2
